<?xml version="1.0" encoding="UTF-8"?>
<svg xmlns="http://www.w3.org/2000/svg" xmlns:xlink="http://www.w3.org/1999/xlink" width="8pt" height="8pt" viewBox="0 0 8 8" version="1.1">
<g id="surface1">
<path style=" stroke:none;fill-rule:nonzero;fill:rgb(0%,0%,0%);fill-opacity:1;" d="M 3.996094 6.03125 C 3.453125 6.03125 2.945312 5.820312 2.558594 5.4375 C 1.769531 4.644531 1.769531 3.355469 2.558594 2.566406 C 2.832031 2.292969 3.175781 2.101562 3.550781 2.019531 C 3.914062 1.9375 4.292969 1.957031 4.648438 2.078125 C 4.730469 2.105469 4.773438 2.195312 4.746094 2.273438 C 4.71875 2.355469 4.628906 2.402344 4.546875 2.375 C 3.921875 2.160156 3.246094 2.320312 2.78125 2.785156 C 2.109375 3.457031 2.109375 4.546875 2.78125 5.214844 C 3.105469 5.542969 3.535156 5.71875 3.996094 5.71875 C 4.457031 5.71875 4.886719 5.542969 5.210938 5.214844 C 5.683594 4.746094 5.839844 4.039062 5.609375 3.410156 C 5.582031 3.332031 5.625 3.242188 5.703125 3.210938 C 5.785156 3.183594 5.875 3.222656 5.90625 3.304688 C 6.175781 4.042969 5.988281 4.882812 5.433594 5.4375 C 5.046875 5.820312 4.539062 6.03125 3.996094 6.03125 Z M 3.996094 6.03125 "/>
<path style=" stroke:none;fill-rule:nonzero;fill:rgb(0%,0%,0%);fill-opacity:1;" d="M 4.6875 8 L 3.3125 8 C 3.226562 8 3.15625 7.929688 3.15625 7.84375 L 3.15625 7.175781 C 2.875 7.101562 2.605469 6.988281 2.351562 6.84375 L 1.878906 7.316406 C 1.847656 7.34375 1.808594 7.359375 1.769531 7.359375 C 1.726562 7.359375 1.6875 7.34375 1.65625 7.316406 L 0.683594 6.34375 C 0.65625 6.3125 0.640625 6.273438 0.640625 6.230469 C 0.640625 6.191406 0.65625 6.152344 0.683594 6.121094 L 1.15625 5.648438 C 1.011719 5.394531 0.898438 5.125 0.824219 4.84375 L 0.15625 4.84375 C 0.0703125 4.84375 0 4.773438 0 4.6875 L 0 3.3125 C 0 3.226562 0.0703125 3.15625 0.15625 3.15625 L 0.824219 3.15625 C 0.898438 2.875 1.011719 2.605469 1.160156 2.351562 L 0.683594 1.878906 C 0.65625 1.847656 0.640625 1.808594 0.640625 1.769531 C 0.640625 1.726562 0.65625 1.6875 0.683594 1.65625 L 1.65625 0.683594 C 1.6875 0.65625 1.726562 0.640625 1.769531 0.640625 C 1.808594 0.640625 1.847656 0.65625 1.878906 0.683594 L 2.351562 1.160156 C 2.605469 1.011719 2.875 0.902344 3.15625 0.828125 L 3.15625 0.15625 C 3.15625 0.0703125 3.226562 0 3.3125 0 L 4.6875 0 C 4.773438 0 4.84375 0.0703125 4.84375 0.15625 L 4.84375 0.828125 C 5.125 0.902344 5.394531 1.015625 5.644531 1.160156 L 6.121094 0.683594 C 6.152344 0.65625 6.191406 0.640625 6.230469 0.640625 C 6.273438 0.640625 6.3125 0.65625 6.34375 0.683594 L 7.316406 1.65625 C 7.34375 1.6875 7.359375 1.726562 7.359375 1.769531 C 7.359375 1.808594 7.34375 1.847656 7.316406 1.878906 L 6.839844 2.355469 C 6.984375 2.605469 7.097656 2.875 7.171875 3.15625 L 7.84375 3.15625 C 7.929688 3.15625 8 3.226562 8 3.3125 L 8 4.6875 C 8 4.773438 7.929688 4.84375 7.84375 4.84375 L 7.171875 4.84375 C 7.097656 5.125 6.988281 5.394531 6.839844 5.648438 L 7.316406 6.121094 C 7.34375 6.152344 7.359375 6.191406 7.359375 6.230469 C 7.359375 6.273438 7.34375 6.3125 7.316406 6.34375 L 6.34375 7.316406 C 6.28125 7.375 6.183594 7.375 6.121094 7.316406 L 5.648438 6.839844 C 5.394531 6.988281 5.125 7.101562 4.84375 7.175781 L 4.84375 7.84375 C 4.84375 7.929688 4.773438 8 4.6875 8 Z M 3.46875 7.6875 L 4.53125 7.6875 L 4.53125 7.050781 C 4.53125 6.980469 4.582031 6.917969 4.652344 6.898438 C 4.984375 6.824219 5.300781 6.695312 5.585938 6.511719 C 5.648438 6.472656 5.730469 6.480469 5.78125 6.535156 L 6.230469 6.984375 L 6.984375 6.230469 L 6.53125 5.78125 C 6.480469 5.730469 6.472656 5.648438 6.511719 5.585938 C 6.691406 5.300781 6.824219 4.984375 6.898438 4.652344 C 6.914062 4.582031 6.976562 4.53125 7.050781 4.53125 L 7.6875 4.53125 L 7.6875 3.46875 L 7.046875 3.46875 C 6.976562 3.46875 6.914062 3.417969 6.894531 3.347656 C 6.820312 3.015625 6.691406 2.703125 6.507812 2.414062 C 6.46875 2.351562 6.480469 2.273438 6.53125 2.21875 L 6.984375 1.769531 L 6.230469 1.015625 L 5.78125 1.46875 C 5.726562 1.519531 5.648438 1.53125 5.585938 1.492188 C 5.296875 1.308594 4.984375 1.179688 4.652344 1.105469 C 4.582031 1.085938 4.53125 1.0.23438 4.53125 0.953125 L 4.53125 0.3125 L 3.46875 0.3125 L 3.46875 0.949219 C 3.46875 1.0.23438 3.417969 1.085938 3.347656 1.101562 C 3.015625 1.175781 2.699219 1.308594 2.414062 1.488281 C 2.351562 1.527344 2.269531 1.519531 2.21875 1.46875 L 1.769531 1.015625 L 1.015625 1.769531 L 1.464844 2.21875 C 1.519531 2.269531 1.527344 2.351562 1.488281 2.414062 C 1.304688 2.699219 1.175781 3.015625 1.101562 3.347656 C 1.082031 3.417969 1.019531 3.46875 0.949219 3.46875 L 0.3125 3.46875 L 0.3125 4.53125 L 0.945312 4.53125 C 1.019531 4.53125 1.082031 4.582031 1.097656 4.652344 C 1.171875 4.984375 1.304688 5.300781 1.488281 5.589844 C 1.527344 5.652344 1.515625 5.730469 1.464844 5.785156 L 1.015625 6.230469 L 1.769531 6.984375 L 2.214844 6.535156 C 2.269531 6.484375 2.347656 6.472656 2.410156 6.511719 C 2.699219 6.695312 3.015625 6.828125 3.347656 6.902344 C 3.417969 6.917969 3.46875 6.980469 3.46875 7.054688 Z M 3.46875 7.6875 "/>
<path style=" stroke:none;fill-rule:nonzero;fill:rgb(0%,0%,0%);fill-opacity:1;" d="M 3.996094 5.097656 C 3.394531 5.097656 2.902344 4.605469 2.902344 4.003906 C 2.902344 3.398438 3.394531 2.910156 3.996094 2.910156 C 4.601562 2.910156 5.089844 3.398438 5.089844 4.003906 C 5.089844 4.605469 4.601562 5.097656 3.996094 5.097656 Z M 3.996094 3.222656 C 3.566406 3.222656 3.214844 3.570312 3.214844 4.003906 C 3.214844 4.433594 3.566406 4.785156 3.996094 4.785156 C 4.429688 4.785156 4.777344 4.433594 4.777344 4.003906 C 4.777344 3.570312 4.429688 3.222656 3.996094 3.222656 Z M 3.996094 3.222656 "/>
<path style=" stroke:none;fill-rule:nonzero;fill:rgb(0%,0%,0%);fill-opacity:1;" d="M 5.316406 2.835938 C 5.277344 2.835938 5.238281 2.820312 5.207031 2.789062 C 5.148438 2.730469 5.148438 2.628906 5.207031 2.570312 L 5.214844 2.5625 C 5.277344 2.5 5.375 2.5 5.4375 2.5625 C 5.496094 2.621094 5.496094 2.722656 5.4375 2.78125 L 5.429688 2.789062 C 5.398438 2.820312 5.359375 2.835938 5.316406 2.835938 Z M 5.316406 2.835938 "/>
</g>
</svg>
