<?xml version="1.0" encoding="UTF-8"?>
<svg xmlns="http://www.w3.org/2000/svg" xmlns:xlink="http://www.w3.org/1999/xlink" width="8pt" height="8pt" viewBox="0 0 8 8" version="1.1">
<g id="surface1">
<path style=" stroke:none;fill-rule:nonzero;fill:rgb(52.941176%,80.784314%,85.098039%);fill-opacity:1;" d="M 4 0.132812 L 2 0.667969 L 0.132812 0.132812 L 0.132812 7.332031 L 2 7.867188 L 4 7.332031 L 6 7.867188 L 7.867188 7.332031 L 7.867188 0.132812 L 6 0.667969 Z M 4 0.132812 "/>
<path style=" stroke:none;fill-rule:nonzero;fill:rgb(44.313725%,76.862745%,81.960784%);fill-opacity:1;" d="M 0.933594 0.363281 L 0.132812 0.132812 L 0.132812 7.332031 L 2 7.867188 L 2 0.667969 Z M 0.933594 0.363281 "/>
<path style=" stroke:none;fill-rule:nonzero;fill:rgb(44.313725%,76.862745%,81.960784%);fill-opacity:1;" d="M 4 0.132812 L 4 7.332031 L 6 7.867188 L 6 0.667969 Z M 4 0.132812 "/>
<path style=" stroke:none;fill-rule:nonzero;fill:rgb(87.058824%,29.803922%,23.529412%);fill-opacity:1;" d="M 1.683594 4.132812 C 1.292969 4.132812 0.972656 4.453125 0.972656 4.847656 C 0.972656 4.988281 1.011719 5.125 1.089844 5.242188 L 1.683594 6.132812 L 2.277344 5.242188 C 2.496094 4.914062 2.410156 4.472656 2.082031 4.253906 C 1.964844 4.175781 1.824219 4.132812 1.683594 4.132812 Z M 1.683594 5.066406 C 1.539062 5.066406 1.417969 4.949219 1.417969 4.800781 C 1.417969 4.652344 1.539062 4.535156 1.683594 4.535156 C 1.832031 4.535156 1.953125 4.652344 1.953125 4.800781 C 1.953125 4.949219 1.832031 5.066406 1.683594 5.066406 Z M 1.683594 5.066406 "/>
<path style=" stroke:none;fill-rule:nonzero;fill:rgb(87.058824%,29.803922%,23.529412%);fill-opacity:1;" d="M 5.867188 0.132812 C 5.472656 0.132812 5.152344 0.453125 5.152344 0.847656 C 5.152344 1.0.28281 5.195312 1.125 5.273438 1.242188 L 5.867188 2.132812 L 6.460938 1.242188 C 6.679688 0.914062 6.589844 0.472656 6.261719 0.253906 C 6.144531 0.175781 6.007812 0.132812 5.867188 0.132812 Z M 5.867188 1.066406 C 5.71875 1.066406 5.601562 0.949219 5.601562 0.800781 C 5.601562 0.652344 5.71875 0.535156 5.867188 0.535156 C 6.015625 0.535156 6.132812 0.652344 6.132812 0.800781 C 6.132812 0.949219 6.015625 1.066406 5.867188 1.066406 Z M 5.867188 1.066406 "/>
<path style=" stroke:none;fill-rule:nonzero;fill:rgb(26.27451%,59.607843%,81.960784%);fill-opacity:1;" d="M 5.332031 6.800781 L 1.601562 6.800781 L 1.601562 6.535156 L 5.332031 6.535156 C 5.554688 6.535156 5.734375 6.355469 5.734375 6.132812 C 5.734375 5.914062 5.554688 5.734375 5.332031 5.734375 L 4 5.734375 C 3.632812 5.734375 3.332031 5.433594 3.332031 5.066406 C 3.332031 4.699219 3.632812 4.398438 4 4.398438 L 6.800781 4.398438 C 7.019531 4.398438 7.199219 4.222656 7.199219 4 C 7.199219 3.777344 7.019531 3.601562 6.800781 3.601562 L 6.398438 3.601562 C 6.03125 3.597656 5.734375 3.300781 5.734375 2.933594 L 5.734375 2.535156 L 6 2.535156 L 6 2.933594 C 6 3.152344 6.179688 3.332031 6.398438 3.332031 L 6.800781 3.332031 C 7.167969 3.332031 7.464844 3.632812 7.464844 4 C 7.464844 4.367188 7.167969 4.667969 6.800781 4.667969 L 4 4.667969 C 3.777344 4.667969 3.601562 4.84375 3.601562 5.066406 C 3.601562 5.289062 3.777344 5.464844 4 5.464844 L 5.332031 5.464844 C 5.703125 5.464844 6 5.765625 6 6.132812 C 6 6.5 5.703125 6.800781 5.332031 6.800781 Z M 5.332031 6.800781 "/>
<path style=" stroke:none;fill-rule:nonzero;fill:rgb(45.882353%,27.45098%,18.039216%);fill-opacity:1;" d="M 6.535156 2.398438 L 6.800781 2.132812 L 7.066406 2.398438 L 7.066406 2.800781 L 6.535156 2.800781 Z M 6.535156 2.398438 "/>
<path style=" stroke:none;fill-rule:nonzero;fill:rgb(45.882353%,27.45098%,18.039216%);fill-opacity:1;" d="M 3.734375 3.464844 L 4 3.199219 L 4.265625 3.464844 L 4.265625 3.867188 L 3.734375 3.867188 Z M 3.734375 3.464844 "/>
<path style=" stroke:none;fill-rule:nonzero;fill:rgb(44.705882%,61.960784%,11.0.20392%);fill-opacity:1;" d="M 1.464844 2.132812 L 0.933594 2.933594 L 2 2.933594 Z M 1.464844 2.132812 "/>
<path style=" stroke:none;fill-rule:nonzero;fill:rgb(53.333333%,70.196078%,21.568627%);fill-opacity:1;" d="M 2.132812 2.398438 L 1.734375 2.933594 L 2.535156 2.933594 Z M 2.132812 2.398438 "/>
<path style=" stroke:none;fill-rule:nonzero;fill:rgb(44.705882%,61.960784%,11.0.20392%);fill-opacity:1;" d="M 3.199219 2 L 3.464844 1.199219 L 3.734375 2 Z M 3.199219 2 "/>
<path style=" stroke:none;fill-rule:nonzero;fill:rgb(45.882353%,27.45098%,18.039216%);fill-opacity:1;" d="M 3.332031 2 L 3.601562 2 L 3.601562 2.398438 L 3.332031 2.398438 Z M 3.332031 2 "/>
<path style=" stroke:none;fill-rule:nonzero;fill:rgb(36.862745%,21.960784%,14.509804%);fill-opacity:1;" d="M 3.332031 2 L 3.601562 2 L 3.601562 2.132812 L 3.332031 2.132812 Z M 3.332031 2 "/>
<path style=" stroke:none;fill-rule:nonzero;fill:rgb(44.705882%,61.960784%,11.0.20392%);fill-opacity:1;" d="M 4.265625 2 L 4.535156 1.199219 L 4.800781 2 Z M 4.265625 2 "/>
<path style=" stroke:none;fill-rule:nonzero;fill:rgb(45.882353%,27.45098%,18.039216%);fill-opacity:1;" d="M 4.398438 2 L 4.667969 2 L 4.667969 2.398438 L 4.398438 2.398438 Z M 4.398438 2 "/>
<path style=" stroke:none;fill-rule:nonzero;fill:rgb(36.862745%,21.960784%,14.509804%);fill-opacity:1;" d="M 4.398438 2 L 4.667969 2 L 4.667969 2.132812 L 4.398438 2.132812 Z M 4.398438 2 "/>
<path style=" stroke:none;fill-rule:nonzero;fill:rgb(44.705882%,61.960784%,11.0.20392%);fill-opacity:1;" d="M 6.535156 6.398438 L 6.800781 5.601562 L 7.066406 6.398438 Z M 6.535156 6.398438 "/>
<path style=" stroke:none;fill-rule:nonzero;fill:rgb(45.882353%,27.45098%,18.039216%);fill-opacity:1;" d="M 6.667969 6.398438 L 6.933594 6.398438 L 6.933594 6.800781 L 6.667969 6.800781 Z M 6.667969 6.398438 "/>
<path style=" stroke:none;fill-rule:nonzero;fill:rgb(36.862745%,21.960784%,14.509804%);fill-opacity:1;" d="M 6.667969 6.398438 L 6.933594 6.398438 L 6.933594 6.53125 L 6.667969 6.53125 Z M 6.667969 6.398438 "/>
<path style=" stroke:none;fill-rule:nonzero;fill:rgb(0%,0%,0%);fill-opacity:1;" d="M 7.828125 0.00390625 L 6.5625 0.367188 C 6.300781 -0.015625 5.773438 -0.117188 5.390625 0.148438 C 5.320312 0.195312 5.257812 0.253906 5.207031 0.316406 L 4.035156 0.00390625 C 4.011719 0 3.988281 0 3.964844 0.00390625 L 2 0.527344 L 0.171875 0.00390625 C 0.0976562 -0.015625 0.0273438 0.0273438 0.00390625 0.0976562 C 0 0.109375 0 0.121094 0 0.132812 L 0 7.332031 C 0 7.394531 0.0390625 7.445312 0.0976562 7.460938 L 1.964844 7.996094 C 1.988281 8 2.011719 8 2.035156 7.996094 L 4 7.472656 L 5.964844 7.996094 C 5.988281 8 6.011719 8 6.035156 7.996094 L 7.902344 7.460938 C 7.960938 7.445312 8 7.394531 8 7.332031 L 8 0.132812 C 8 0.0585938 7.941406 0 7.867188 0 C 7.855469 0 7.84375 0 7.828125 0.00390625 Z M 5.355469 0.574219 C 5.507812 0.289062 5.859375 0.183594 6.140625 0.335938 C 6.421875 0.488281 6.53125 0.839844 6.378906 1.121094 C 6.371094 1.136719 6.359375 1.152344 6.347656 1.167969 L 5.867188 1.894531 L 5.382812 1.167969 C 5.261719 0.992188 5.253906 0.761719 5.355469 0.574219 Z M 7.734375 7.234375 L 6 7.726562 L 4.035156 7.203125 C 4.011719 7.199219 3.988281 7.199219 3.964844 7.203125 L 2 7.726562 L 0.265625 7.234375 L 0.265625 0.308594 L 1.964844 0.792969 C 1.988281 0.800781 2.011719 0.800781 2.035156 0.792969 L 4 0.269531 L 5.070312 0.558594 C 4.976562 0.808594 5.011719 1.09375 5.160156 1.316406 L 5.753906 2.207031 C 5.796875 2.269531 5.878906 2.285156 5.941406 2.246094 C 5.957031 2.234375 5.96875 2.222656 5.976562 2.207031 L 6.570312 1.316406 C 6.710938 1.109375 6.75 0.851562 6.679688 0.613281 L 7.734375 0.308594 Z M 7.734375 7.234375 "/>
<path style=" stroke:none;fill-rule:nonzero;fill:rgb(0%,0%,0%);fill-opacity:1;" d="M 1.796875 6.207031 L 2.390625 5.316406 C 2.648438 4.925781 2.542969 4.402344 2.15625 4.140625 C 2.015625 4.050781 1.851562 4 1.683594 4 C 1.21875 4 0.839844 4.378906 0.839844 4.847656 C 0.839844 5.015625 0.886719 5.175781 1.0.20469 5.316406 L 1.574219 6.207031 C 1.613281 6.269531 1.699219 6.285156 1.757812 6.246094 C 1.773438 6.234375 1.785156 6.222656 1.796875 6.207031 Z M 1.203125 5.167969 C 1.0.23438 4.902344 1.097656 4.542969 1.363281 4.363281 C 1.628906 4.1875 1.992188 4.257812 2.167969 4.523438 C 2.296875 4.71875 2.296875 4.972656 2.167969 5.167969 L 1.683594 5.894531 Z M 1.203125 5.167969 "/>
<path style=" stroke:none;fill-rule:nonzero;fill:rgb(0%,0%,0%);fill-opacity:1;" d="M 1.953125 4.800781 C 1.953125 4.945312 1.832031 5.066406 1.683594 5.066406 C 1.539062 5.066406 1.417969 4.945312 1.417969 4.800781 C 1.417969 4.652344 1.539062 4.53125 1.683594 4.53125 C 1.832031 4.53125 1.953125 4.652344 1.953125 4.800781 Z M 1.953125 4.800781 "/>
<path style=" stroke:none;fill-rule:nonzero;fill:rgb(0%,0%,0%);fill-opacity:1;" d="M 6.132812 0.800781 C 6.132812 0.945312 6.015625 1.066406 5.867188 1.066406 C 5.71875 1.066406 5.601562 0.945312 5.601562 0.800781 C 5.601562 0.652344 5.71875 0.535156 5.867188 0.535156 C 6.015625 0.535156 6.132812 0.652344 6.132812 0.800781 Z M 6.132812 0.800781 "/>
<path style=" stroke:none;fill-rule:nonzero;fill:rgb(0%,0%,0%);fill-opacity:1;" d="M 6.398438 3.332031 C 6.179688 3.332031 6 3.152344 6 2.933594 L 6 2.535156 L 5.734375 2.535156 L 5.734375 2.933594 C 5.734375 3.300781 6.03125 3.597656 6.398438 3.601562 L 6.800781 3.601562 C 7.019531 3.601562 7.199219 3.777344 7.199219 4 C 7.199219 4.222656 7.019531 4.398438 6.800781 4.398438 L 4 4.398438 C 3.632812 4.398438 3.332031 4.699219 3.332031 5.066406 C 3.332031 5.433594 3.632812 5.734375 4 5.734375 L 5.332031 5.734375 C 5.554688 5.734375 5.734375 5.914062 5.734375 6.132812 C 5.734375 6.355469 5.554688 6.535156 5.332031 6.535156 L 1.601562 6.535156 L 1.601562 6.800781 L 5.332031 6.800781 C 5.703125 6.800781 6 6.5 6 6.132812 C 6 5.765625 5.703125 5.464844 5.332031 5.464844 L 4 5.464844 C 3.777344 5.464844 3.601562 5.289062 3.601562 5.066406 C 3.601562 4.847656 3.777344 4.667969 4 4.667969 L 6.800781 4.667969 C 7.167969 4.667969 7.464844 4.367188 7.464844 4 C 7.464844 3.632812 7.167969 3.332031 6.800781 3.332031 Z M 6.398438 3.332031 "/>
<path style=" stroke:none;fill-rule:nonzero;fill:rgb(0%,0%,0%);fill-opacity:1;" d="M 6.4375 2.304688 C 6.414062 2.332031 6.398438 2.363281 6.398438 2.398438 L 6.398438 2.800781 C 6.398438 2.875 6.460938 2.933594 6.535156 2.933594 L 7.066406 2.933594 C 7.140625 2.933594 7.199219 2.875 7.199219 2.800781 L 7.199219 2.398438 C 7.199219 2.363281 7.1875 2.332031 7.160156 2.304688 L 6.894531 2.039062 C 6.84375 1.988281 6.757812 1.988281 6.707031 2.039062 Z M 6.933594 2.457031 L 6.933594 2.667969 L 6.667969 2.667969 L 6.667969 2.457031 L 6.800781 2.320312 Z M 6.933594 2.457031 "/>
<path style=" stroke:none;fill-rule:nonzero;fill:rgb(0%,0%,0%);fill-opacity:1;" d="M 4.265625 2.132812 L 4.398438 2.132812 L 4.398438 2.398438 L 4.667969 2.398438 L 4.667969 2.132812 L 4.800781 2.132812 C 4.875 2.132812 4.933594 2.074219 4.933594 2 C 4.933594 1.984375 4.929688 1.972656 4.925781 1.957031 L 4.660156 1.15625 C 4.636719 1.089844 4.5625 1.050781 4.492188 1.074219 C 4.453125 1.085938 4.417969 1.117188 4.40625 1.15625 L 4.140625 1.957031 C 4.117188 2.027344 4.15625 2.101562 4.222656 2.125 C 4.238281 2.132812 4.253906 2.132812 4.265625 2.132812 Z M 4.535156 1.621094 L 4.613281 1.867188 L 4.453125 1.867188 Z M 4.535156 1.621094 "/>
<path style=" stroke:none;fill-rule:nonzero;fill:rgb(0%,0%,0%);fill-opacity:1;" d="M 6.925781 5.558594 C 6.902344 5.488281 6.828125 5.449219 6.757812 5.472656 C 6.71875 5.484375 6.6875 5.515625 6.671875 5.558594 L 6.40625 6.359375 C 6.382812 6.425781 6.421875 6.503906 6.492188 6.527344 C 6.503906 6.53125 6.519531 6.535156 6.535156 6.535156 L 6.667969 6.535156 L 6.667969 6.800781 L 6.933594 6.800781 L 6.933594 6.535156 L 7.066406 6.535156 C 7.140625 6.535156 7.199219 6.472656 7.199219 6.398438 C 7.199219 6.386719 7.199219 6.371094 7.191406 6.359375 Z M 6.800781 6.023438 L 6.882812 6.265625 L 6.71875 6.265625 Z M 6.800781 6.023438 "/>
<path style=" stroke:none;fill-rule:nonzero;fill:rgb(0%,0%,0%);fill-opacity:1;" d="M 1.472656 2.363281 L 1.734375 2.710938 L 1.625 2.851562 L 1.839844 3.011719 L 2.132812 2.621094 L 2.425781 3.011719 L 2.640625 2.851562 L 2.238281 2.320312 C 2.191406 2.261719 2.105469 2.253906 2.046875 2.300781 C 2.039062 2.308594 2.03125 2.3125 2.027344 2.320312 L 1.898438 2.488281 L 1.574219 2.054688 C 1.546875 2.019531 1.507812 2 1.464844 2 C 1.417969 2 1.378906 2.023438 1.355469 2.058594 L 0.824219 2.859375 L 1.042969 3.007812 Z M 1.472656 2.363281 "/>
<path style=" stroke:none;fill-rule:nonzero;fill:rgb(0%,0%,0%);fill-opacity:1;" d="M 3.601562 3.464844 L 3.601562 3.867188 C 3.601562 3.941406 3.660156 4 3.734375 4 L 4.265625 4 C 4.339844 4 4.398438 3.941406 4.398438 3.867188 L 4.398438 3.464844 C 4.398438 3.429688 4.386719 3.398438 4.359375 3.371094 L 4.09375 3.105469 C 4.042969 3.054688 3.957031 3.054688 3.90625 3.105469 L 3.640625 3.371094 C 3.613281 3.398438 3.601562 3.429688 3.601562 3.464844 Z M 3.867188 3.523438 L 4 3.386719 L 4.132812 3.523438 L 4.132812 3.734375 L 3.867188 3.734375 Z M 3.867188 3.523438 "/>
<path style=" stroke:none;fill-rule:nonzero;fill:rgb(0%,0%,0%);fill-opacity:1;" d="M 3.199219 2.132812 L 3.332031 2.132812 L 3.332031 2.398438 L 3.601562 2.398438 L 3.601562 2.132812 L 3.734375 2.132812 C 3.808594 2.132812 3.867188 2.074219 3.867188 2 C 3.867188 1.984375 3.863281 1.972656 3.859375 1.957031 L 3.59375 1.15625 C 3.570312 1.089844 3.496094 1.050781 3.425781 1.074219 C 3.382812 1.085938 3.351562 1.117188 3.339844 1.15625 L 3.074219 1.957031 C 3.050781 2.027344 3.085938 2.101562 3.15625 2.125 C 3.171875 2.132812 3.183594 2.132812 3.199219 2.132812 Z M 3.464844 1.621094 L 3.546875 1.867188 L 3.386719 1.867188 Z M 3.464844 1.621094 "/>
</g>
</svg>
