<?xml version="1.0" encoding="UTF-8"?>
<svg xmlns="http://www.w3.org/2000/svg" xmlns:xlink="http://www.w3.org/1999/xlink" width="8pt" height="8pt" viewBox="0 0 8 8" version="1.1">
<g id="surface1">
<path style=" stroke:none;fill-rule:nonzero;fill:rgb(92.941176%,11.0.20392%,14.117647%);fill-opacity:1;" d="M 0.398438 2.132812 C 0.328125 2.132812 0.265625 2.074219 0.265625 2 C 0.265625 1.9375 0.3125 1.882812 0.371094 1.871094 L 0.761719 1.785156 C 0.835938 1.769531 0.90625 1.816406 0.921875 1.886719 C 0.9375 1.960938 0.890625 2.03125 0.820312 2.046875 L 0.429688 2.128906 C 0.417969 2.132812 0.410156 2.132812 0.398438 2.132812 Z M 0.398438 2.132812 "/>
<path style=" stroke:none;fill-rule:nonzero;fill:rgb(92.941176%,11.0.20392%,14.117647%);fill-opacity:1;" d="M 1.101562 1.984375 C 1.0.27344 1.984375 0.96875 1.921875 0.96875 1.851562 C 0.96875 1.785156 1.011719 1.734375 1.074219 1.71875 L 1.539062 1.621094 C 1.609375 1.605469 1.679688 1.648438 1.695312 1.722656 C 1.710938 1.792969 1.664062 1.867188 1.59375 1.878906 L 1.128906 1.980469 C 1.121094 1.984375 1.109375 1.984375 1.101562 1.984375 Z M 1.101562 1.984375 "/>
<path style=" stroke:none;fill-rule:nonzero;fill:rgb(92.941176%,11.0.20392%,14.117647%);fill-opacity:1;" d="M 2.402344 2.109375 C 2.347656 2.109375 2.296875 2.074219 2.277344 2.023438 L 2.179688 1.753906 L 1.902344 1.816406 C 1.832031 1.828125 1.761719 1.785156 1.746094 1.710938 C 1.730469 1.640625 1.773438 1.570312 1.847656 1.554688 L 2.238281 1.46875 C 2.304688 1.457031 2.367188 1.492188 2.390625 1.554688 L 2.527344 1.929688 C 2.554688 2 2.519531 2.078125 2.449219 2.101562 C 2.433594 2.105469 2.417969 2.109375 2.402344 2.109375 Z M 2.402344 2.109375 "/>
<path style=" stroke:none;fill-rule:nonzero;fill:rgb(92.941176%,11.0.20392%,14.117647%);fill-opacity:1;" d="M 2.96875 3.667969 C 2.914062 3.667969 2.863281 3.632812 2.84375 3.578125 L 2.503906 2.644531 C 2.480469 2.574219 2.515625 2.5 2.585938 2.472656 C 2.652344 2.449219 2.730469 2.484375 2.753906 2.554688 L 3.09375 3.488281 C 3.121094 3.558594 3.085938 3.632812 3.015625 3.660156 C 3 3.664062 2.984375 3.667969 2.96875 3.667969 Z M 2.96875 3.667969 "/>
<path style=" stroke:none;fill-rule:nonzero;fill:rgb(92.941176%,11.0.20392%,14.117647%);fill-opacity:1;" d="M 3.332031 4.667969 C 3.277344 4.667969 3.226562 4.632812 3.207031 4.578125 L 3.070312 4.203125 C 3.046875 4.132812 3.082031 4.058594 3.152344 4.03125 C 3.21875 4.007812 3.296875 4.042969 3.320312 4.113281 L 3.421875 4.386719 L 3.710938 4.34375 C 3.78125 4.335938 3.847656 4.390625 3.855469 4.460938 C 3.863281 4.53125 3.816406 4.597656 3.746094 4.609375 L 3.351562 4.664062 C 3.34375 4.667969 3.339844 4.667969 3.332031 4.667969 Z M 3.332031 4.667969 "/>
<path style=" stroke:none;fill-rule:nonzero;fill:rgb(92.941176%,11.0.20392%,14.117647%);fill-opacity:1;" d="M 4.300781 4.527344 C 4.230469 4.527344 4.167969 4.46875 4.167969 4.394531 C 4.167969 4.328125 4.21875 4.273438 4.285156 4.261719 L 5.144531 4.140625 C 5.21875 4.128906 5.285156 4.179688 5.296875 4.253906 C 5.304688 4.324219 5.253906 4.394531 5.183594 4.402344 L 4.320312 4.527344 C 4.316406 4.527344 4.308594 4.527344 4.300781 4.527344 Z M 4.300781 4.527344 "/>
<path style=" stroke:none;fill-rule:nonzero;fill:rgb(92.941176%,11.0.20392%,14.117647%);fill-opacity:1;" d="M 6.402344 4.5625 C 6.367188 4.5625 6.332031 4.546875 6.304688 4.519531 L 6.082031 4.273438 L 5.753906 4.320312 C 5.683594 4.335938 5.613281 4.285156 5.601562 4.214844 C 5.589844 4.140625 5.636719 4.070312 5.710938 4.058594 C 5.710938 4.058594 5.714844 4.058594 5.71875 4.058594 L 6.113281 4 C 6.15625 3.996094 6.199219 4.011719 6.230469 4.042969 L 6.503906 4.335938 C 6.550781 4.390625 6.546875 4.476562 6.496094 4.523438 C 6.46875 4.546875 6.4375 4.558594 6.402344 4.558594 Z M 6.402344 4.5625 "/>
<path style=" stroke:none;fill-rule:nonzero;fill:rgb(92.941176%,11.0.20392%,14.117647%);fill-opacity:1;" d="M 7.160156 5.378906 C 7.121094 5.378906 7.085938 5.363281 7.0625 5.335938 L 6.609375 4.84375 C 6.558594 4.792969 6.558594 4.707031 6.613281 4.65625 C 6.667969 4.605469 6.75 4.609375 6.800781 4.664062 C 6.804688 4.664062 6.804688 4.664062 6.804688 4.664062 L 7.257812 5.15625 C 7.308594 5.210938 7.304688 5.292969 7.25 5.34375 C 7.226562 5.367188 7.191406 5.378906 7.160156 5.378906 Z M 7.160156 5.378906 "/>
<path style=" stroke:none;fill-rule:nonzero;fill:rgb(92.941176%,11.0.20392%,14.117647%);fill-opacity:1;" d="M 7.734375 6 C 7.695312 6 7.660156 5.984375 7.632812 5.957031 L 7.363281 5.664062 C 7.3125 5.609375 7.316406 5.523438 7.371094 5.476562 C 7.425781 5.425781 7.507812 5.429688 7.558594 5.484375 L 7.832031 5.777344 C 7.878906 5.832031 7.875 5.914062 7.820312 5.964844 C 7.796875 5.988281 7.765625 6 7.734375 6 Z M 7.734375 6 "/>
<path style=" stroke:none;fill-rule:nonzero;fill:rgb(0%,44.313725%,73.72549%);fill-opacity:1;" d="M 0.398438 7.734375 C 0.328125 7.734375 0.265625 7.671875 0.265625 7.601562 C 0.265625 7.5625 0.28125 7.53125 0.304688 7.503906 L 2.039062 5.773438 C 2.070312 5.742188 2.109375 5.726562 2.152344 5.734375 L 3.917969 5.988281 L 5.878906 1.414062 C 5.886719 1.386719 5.910156 1.363281 5.933594 1.351562 L 7.800781 0.285156 C 7.863281 0.246094 7.945312 0.269531 7.980469 0.332031 C 8.019531 0.398438 7.996094 0.480469 7.933594 0.515625 L 6.105469 1.558594 L 4.121094 6.1875 C 4.097656 6.242188 4.039062 6.273438 3.980469 6.265625 L 2.179688 6.007812 L 0.496094 7.695312 C 0.46875 7.71875 0.433594 7.734375 0.398438 7.734375 Z M 0.398438 7.734375 "/>
<path style=" stroke:none;fill-rule:nonzero;fill:rgb(16.078431%,28.235294%,35.294118%);fill-opacity:1;" d="M 7.867188 7.464844 L 0.535156 7.464844 L 0.535156 0.132812 C 0.535156 0.0585938 0.472656 0 0.398438 0 C 0.328125 0 0.265625 0.0585938 0.265625 0.132812 L 0.265625 1.867188 L 0.132812 1.867188 C 0.0585938 1.867188 0 1.925781 0 2 C 0 2.074219 0.0585938 2.132812 0.132812 2.132812 L 0.265625 2.132812 L 0.265625 3.867188 L 0.132812 3.867188 C 0.0585938 3.867188 0 3.925781 0 4 C 0 4.074219 0.0585938 4.132812 0.132812 4.132812 L 0.265625 4.132812 L 0.265625 5.734375 L 0.132812 5.734375 C 0.0585938 5.734375 0 5.792969 0 5.867188 C 0 5.941406 0.0585938 6 0.132812 6 L 0.265625 6 L 0.265625 7.597656 C 0.265625 7.671875 0.328125 7.734375 0.398438 7.734375 L 2 7.734375 L 2 7.867188 C 2 7.941406 2.058594 8 2.132812 8 C 2.207031 8 2.265625 7.941406 2.265625 7.867188 L 2.265625 7.734375 L 3.867188 7.734375 L 3.867188 7.867188 C 3.867188 7.941406 3.925781 8 4 8 C 4.074219 8 4.132812 7.941406 4.132812 7.867188 L 4.132812 7.734375 L 5.734375 7.734375 L 5.734375 7.867188 C 5.734375 7.941406 5.792969 8 5.867188 8 C 5.941406 8 6 7.941406 6 7.867188 L 6 7.734375 L 7.867188 7.734375 C 7.941406 7.734375 8 7.671875 8 7.597656 C 8 7.527344 7.941406 7.464844 7.867188 7.464844 Z M 7.867188 7.464844 "/>
</g>
</svg>
