<?xml version="1.0" encoding="UTF-8"?>
<svg xmlns="http://www.w3.org/2000/svg" xmlns:xlink="http://www.w3.org/1999/xlink" width="8pt" height="8pt" viewBox="0 0 8 8" version="1.1">
<g id="surface1">
<path style=" stroke:none;fill-rule:nonzero;fill:rgb(94.509804%,66.27451%,0%);fill-opacity:1;" d="M 1.007812 5.246094 L 7.535156 5.246094 L 6.554688 2.160156 L 1.46875 2.160156 L 0.464844 5.246094 Z M 1.007812 5.246094 "/>
<path style=" stroke:none;fill-rule:nonzero;fill:rgb(97.647059%,94.117647%,86.27451%);fill-opacity:1;" d="M 1.550781 5.246094 L 1.550781 0.132812 L 5.726562 0.132812 L 5.726562 5.246094 Z M 1.550781 5.246094 "/>
<path style=" stroke:none;fill-rule:nonzero;fill:rgb(97.647059%,94.117647%,86.27451%);fill-opacity:1;" d="M 2.261719 0.820312 L 6.4375 0.820312 L 6.4375 5.253906 L 2.261719 5.253906 Z M 2.261719 0.820312 "/>
<path style=" stroke:none;fill-rule:nonzero;fill:rgb(100%,76.470588%,5.490196%);fill-opacity:1;" d="M 7.527344 7.867188 L 0.464844 7.867188 L 0.464844 5.246094 L 7.527344 5.246094 Z M 7.527344 7.867188 "/>
<path style=" stroke:none;fill-rule:nonzero;fill:rgb(97.647059%,94.117647%,86.27451%);fill-opacity:1;" d="M 5.367188 6.5625 C 5.367188 6.726562 5.234375 6.863281 5.066406 6.863281 L 2.933594 6.863281 C 2.765625 6.863281 2.632812 6.726562 2.632812 6.5625 C 2.632812 6.394531 2.765625 6.257812 2.933594 6.257812 L 5.066406 6.257812 C 5.234375 6.257812 5.367188 6.394531 5.367188 6.5625 Z M 5.367188 6.5625 "/>
<path style=" stroke:none;fill-rule:nonzero;fill:rgb(23.921569%,12.156863%,12.54902%);fill-opacity:1;" d="M 2.933594 7.003906 L 5.066406 7.003906 C 5.308594 7.003906 5.511719 6.804688 5.511719 6.5625 C 5.511719 6.316406 5.308594 6.117188 5.066406 6.117188 L 2.933594 6.117188 C 2.691406 6.117188 2.488281 6.316406 2.488281 6.5625 C 2.488281 6.804688 2.683594 7.003906 2.933594 7.003906 Z M 2.933594 6.394531 L 5.066406 6.394531 C 5.160156 6.394531 5.234375 6.46875 5.234375 6.5625 C 5.234375 6.652344 5.160156 6.726562 5.066406 6.726562 L 2.933594 6.726562 C 2.839844 6.726562 2.765625 6.652344 2.765625 6.5625 C 2.765625 6.46875 2.839844 6.394531 2.933594 6.394531 Z M 2.933594 6.394531 "/>
<path style=" stroke:none;fill-rule:nonzero;fill:rgb(23.921569%,12.156863%,12.54902%);fill-opacity:1;" d="M 7.660156 5.230469 C 7.660156 5.222656 7.660156 5.214844 7.660156 5.214844 L 6.582031 1.722656 L 6.582031 0.820312 C 6.582031 0.746094 6.523438 0.6875 6.449219 0.6875 L 5.871094 0.6875 L 5.871094 0.132812 C 5.871094 0.0585938 5.8125 0 5.738281 0 L 1.550781 0 C 1.476562 0 1.417969 0.0585938 1.417969 0.132812 L 1.417969 1.730469 L 0.332031 5.214844 C 0.332031 5.222656 0.332031 5.230469 0.332031 5.230469 C 0.332031 5.238281 0.332031 5.246094 0.332031 5.246094 L 0.332031 7.867188 C 0.332031 7.941406 0.390625 8 0.464844 8 L 7.535156 8 C 7.609375 8 7.667969 7.941406 7.667969 7.867188 L 7.667969 5.246094 C 7.667969 5.246094 7.660156 5.238281 7.660156 5.230469 Z M 6.582031 2.652344 L 7.34375 5.113281 L 6.582031 5.113281 Z M 6.304688 0.953125 L 6.304688 5.113281 L 2.40625 5.113281 L 2.40625 0.953125 Z M 1.6875 0.269531 L 5.585938 0.269531 L 5.585938 0.679688 L 2.261719 0.679688 C 2.1875 0.679688 2.128906 0.738281 2.128906 0.8125 L 2.128906 5.105469 L 1.6875 5.105469 Z M 1.410156 2.652344 L 1.410156 5.113281 L 0.648438 5.113281 Z M 7.394531 7.730469 L 0.597656 7.730469 L 0.597656 5.390625 L 7.394531 5.390625 Z M 7.394531 7.730469 "/>
</g>
</svg>
