<?xml version="1.0" encoding="UTF-8"?>
<svg xmlns="http://www.w3.org/2000/svg" xmlns:xlink="http://www.w3.org/1999/xlink" width="8pt" height="8pt" viewBox="0 0 8 8" version="1.1">
<g id="surface1">
<path style=" stroke:none;fill-rule:nonzero;fill:rgb(69.803922%,96.470588%,100%);fill-opacity:1;" d="M 4 0.15625 C 5.898438 0.15625 7.4375 1.695312 7.4375 3.59375 C 7.4375 4.183594 7.289062 4.738281 7.027344 5.226562 C 6.742188 4.914062 6.332031 4.71875 5.875 4.71875 C 5.011719 4.71875 4.3125 5.417969 4.3125 6.28125 C 4.3125 6.539062 4.375 6.78125 4.484375 6.996094 C 4.328125 7.019531 4.164062 7.03125 4 7.03125 C 2.101562 7.03125 0.5625 5.492188 0.5625 3.59375 C 0.5625 1.695312 2.101562 0.15625 4 0.15625 Z M 4 0.15625 "/>
<path style=" stroke:none;fill-rule:nonzero;fill:rgb(0%,84.313725%,80.784314%);fill-opacity:1;" d="M 4 0.625 C 5.640625 0.625 6.96875 1.953125 6.96875 3.59375 C 6.96875 4.074219 6.855469 4.527344 6.652344 4.925781 C 6.425781 4.792969 6.160156 4.71875 5.875 4.71875 C 5.011719 4.71875 4.3125 5.417969 4.3125 6.28125 C 4.3125 6.371094 4.320312 6.457031 4.335938 6.542969 C 4.226562 6.554688 4.113281 6.5625 4 6.5625 C 2.359375 6.5625 1.03125 5.234375 1.03125 3.59375 C 1.03125 1.953125 2.359375 0.625 4 0.625 Z M 4 0.625 "/>
<path style=" stroke:none;fill-rule:nonzero;fill:rgb(100%,81.176471%,20%);fill-opacity:1;" d="M 5.875 7.84375 C 6.734375 7.84375 7.4375 7.140625 7.4375 6.28125 C 7.4375 5.421875 6.734375 4.71875 5.875 4.71875 C 5.015625 4.71875 4.3125 5.421875 4.3125 6.28125 C 4.3125 7.140625 5.015625 7.84375 5.875 7.84375 Z M 5.875 7.84375 "/>
<path style=" stroke:none;fill-rule:nonzero;fill:rgb(0%,0%,0%);fill-opacity:1;" d="M 6.027344 1.011719 L 6.027344 1.015625 C 6.058594 1.039062 6.089844 1.046875 6.125 1.046875 C 6.171875 1.046875 6.21875 1.0.27344 6.25 1.0.28281 C 6.300781 0.921875 6.289062 0.824219 6.222656 0.769531 L 6.21875 0.769531 C 6.152344 0.714844 6.054688 0.726562 6 0.792969 C 5.949219 0.863281 5.960938 0.960938 6.027344 1.011719 Z M 6.027344 1.011719 "/>
<path style=" stroke:none;fill-rule:nonzero;fill:rgb(0%,0%,0%);fill-opacity:1;" d="M 1.285156 4.949219 C 1.304688 4.949219 1.328125 4.945312 1.347656 4.933594 C 1.425781 4.898438 1.460938 4.808594 1.425781 4.730469 C 1.425781 4.730469 1.425781 4.726562 1.425781 4.726562 C 1.390625 4.648438 1.300781 4.613281 1.21875 4.648438 C 1.140625 4.683594 1.105469 4.777344 1.140625 4.855469 C 1.167969 4.914062 1.222656 4.949219 1.285156 4.949219 Z M 1.285156 4.949219 "/>
<path style=" stroke:none;fill-rule:nonzero;fill:rgb(0%,0%,0%);fill-opacity:1;" d="M 7.59375 3.59375 C 7.59375 2.742188 7.289062 1.917969 6.742188 1.269531 C 6.683594 1.203125 6.585938 1.195312 6.519531 1.25 C 6.453125 1.308594 6.445312 1.40625 6.503906 1.472656 C 7.003906 2.0625 7.28125 2.816406 7.28125 3.59375 C 7.28125 4.066406 7.179688 4.539062 6.980469 4.964844 C 6.941406 4.933594 6.898438 4.898438 6.851562 4.867188 C 7.035156 4.46875 7.125 4.039062 7.125 3.59375 C 7.125 2.714844 6.757812 1.917969 6.171875 1.351562 C 6.167969 1.34375 6.164062 1.339844 6.160156 1.335938 C 6.15625 1.328125 6.148438 1.324219 6.140625 1.316406 C 5.578125 0.792969 4.828125 0.46875 4 0.46875 C 3.171875 0.46875 2.421875 0.792969 1.859375 1.316406 C 1.851562 1.324219 1.84375 1.328125 1.839844 1.335938 C 1.835938 1.339844 1.832031 1.34375 1.828125 1.347656 C 1.242188 1.917969 0.875 2.714844 0.875 3.59375 C 0.875 3.867188 0.910156 4.140625 1.0.20469 4.402344 C 1.003906 4.484375 1.089844 4.535156 1.171875 4.511719 C 1.257812 4.492188 1.304688 4.40625 1.285156 4.320312 C 1.234375 4.132812 1.203125 3.941406 1.191406 3.75 L 2.363281 3.75 C 2.375 4.234375 2.441406 4.699219 2.5625 5.113281 C 2.347656 5.226562 2.144531 5.363281 1.957031 5.527344 C 1.878906 5.445312 1.804688 5.359375 1.738281 5.265625 C 1.6875 5.195312 1.589844 5.183594 1.519531 5.234375 C 1.449219 5.285156 1.4375 5.382812 1.488281 5.453125 C 1.59375 5.59375 1.707031 5.726562 1.835938 5.84375 C 1.835938 5.847656 1.835938 5.847656 1.839844 5.851562 C 1.84375 5.855469 1.847656 5.859375 1.851562 5.863281 C 2.425781 6.40625 3.199219 6.71875 4 6.71875 C 4.070312 6.71875 4.140625 6.714844 4.210938 6.710938 C 4.222656 6.761719 4.238281 6.816406 4.257812 6.863281 C 4.171875 6.871094 4.085938 6.875 4 6.875 C 2.191406 6.875 0.71875 5.402344 0.71875 3.59375 C 0.71875 1.785156 2.191406 0.3125 4 0.3125 C 4.574219 0.3125 5.140625 0.464844 5.640625 0.753906 C 5.714844 0.796875 5.8125 0.769531 5.855469 0.695312 C 5.898438 0.621094 5.871094 0.523438 5.796875 0.480469 C 5.25 0.167969 4.628906 0 4 0 C 3.039062 0 2.136719 0.375 1.457031 1.050781 C 0.78125 1.730469 0.40625 2.632812 0.40625 3.59375 C 0.40625 4.554688 0.78125 5.457031 1.457031 6.136719 C 2.136719 6.8125 3.039062 7.1875 4 7.1875 C 4.132812 7.1875 4.269531 7.179688 4.402344 7.164062 C 4.703125 7.664062 5.25 8 5.875 8 C 6.824219 8 7.59375 7.230469 7.59375 6.28125 C 7.59375 5.875 7.449219 5.5 7.214844 5.203125 C 7.460938 4.707031 7.59375 4.152344 7.59375 3.59375 Z M 5.875 4.5625 C 5.765625 4.5625 5.660156 4.574219 5.558594 4.59375 C 5.605469 4.320312 5.632812 4.039062 5.636719 3.75 L 6.808594 3.75 C 6.789062 4.085938 6.714844 4.40625 6.582031 4.714844 C 6.363281 4.617188 6.125 4.5625 5.875 4.5625 Z M 4.15625 2.417969 C 4.5 2.402344 4.835938 2.328125 5.148438 2.203125 C 5.25 2.574219 5.3125 2.992188 5.324219 3.4375 L 4.15625 3.4375 Z M 4.15625 2.105469 L 4.15625 0.800781 C 4.515625 0.894531 4.839844 1.3125 5.054688 1.90625 C 4.769531 2.019531 4.46875 2.085938 4.15625 2.105469 Z M 5.1875 1.425781 C 5.089844 1.226562 4.976562 1.054688 4.855469 0.914062 C 5.210938 1.0.27344 5.535156 1.210938 5.8125 1.445312 C 5.664062 1.570312 5.507812 1.679688 5.339844 1.769531 C 5.292969 1.648438 5.242188 1.535156 5.1875 1.425781 Z M 2.660156 1.769531 C 2.492188 1.679688 2.335938 1.570312 2.1875 1.445312 C 2.464844 1.210938 2.789062 1.0.27344 3.144531 0.914062 C 3.023438 1.054688 2.910156 1.226562 2.8125 1.425781 C 2.757812 1.535156 2.707031 1.648438 2.660156 1.769531 Z M 3.84375 0.800781 L 3.84375 2.105469 C 3.53125 2.085938 3.230469 2.019531 2.945312 1.90625 C 3.160156 1.3125 3.484375 0.894531 3.84375 0.800781 Z M 3.84375 2.417969 L 3.84375 3.4375 L 2.675781 3.4375 C 2.6875 2.992188 2.75 2.574219 2.851562 2.203125 C 3.164062 2.328125 3.5 2.402344 3.84375 2.417969 Z M 2.945312 5.28125 C 3.230469 5.167969 3.53125 5.097656 3.84375 5.082031 L 3.84375 6.386719 C 3.484375 6.292969 3.160156 5.875 2.945312 5.28125 Z M 4.15625 6.28125 C 4.15625 6.316406 4.15625 6.351562 4.160156 6.382812 C 4.160156 6.386719 4.15625 6.386719 4.15625 6.386719 L 4.15625 5.082031 C 4.300781 5.089844 4.449219 5.109375 4.589844 5.140625 C 4.320312 5.445312 4.15625 5.84375 4.15625 6.28125 Z M 4.867188 4.890625 C 4.636719 4.820312 4.398438 4.78125 4.15625 4.769531 L 4.15625 3.75 L 5.324219 3.75 C 5.316406 4.074219 5.28125 4.390625 5.21875 4.691406 C 5.09375 4.746094 4.976562 4.808594 4.867188 4.890625 Z M 6.808594 3.4375 L 5.636719 3.4375 C 5.625 2.953125 5.558594 2.488281 5.4375 2.074219 C 5.652344 1.960938 5.855469 1.824219 6.042969 1.664062 C 6.484375 2.132812 6.769531 2.75 6.808594 3.4375 Z M 1.957031 1.664062 C 2.144531 1.824219 2.347656 1.960938 2.5625 2.074219 C 2.441406 2.488281 2.375 2.953125 2.363281 3.4375 L 1.191406 3.4375 C 1.230469 2.75 1.515625 2.132812 1.957031 1.664062 Z M 2.675781 3.75 L 3.84375 3.75 L 3.84375 4.769531 C 3.5 4.785156 3.164062 4.859375 2.851562 4.984375 C 2.75 4.613281 2.6875 4.195312 2.675781 3.75 Z M 2.8125 5.761719 C 2.910156 5.960938 3.023438 6.132812 3.140625 6.269531 C 2.792969 6.160156 2.46875 5.980469 2.1875 5.742188 C 2.332031 5.617188 2.492188 5.507812 2.660156 5.417969 C 2.707031 5.539062 2.757812 5.652344 2.8125 5.761719 Z M 5.875 7.6875 C 5.097656 7.6875 4.46875 7.058594 4.46875 6.28125 C 4.46875 5.503906 5.097656 4.875 5.875 4.875 C 6.652344 4.875 7.28125 5.503906 7.28125 6.28125 C 7.28125 7.058594 6.652344 7.6875 5.875 7.6875 Z M 5.875 7.6875 "/>
<path style=" stroke:none;fill-rule:nonzero;fill:rgb(0%,0%,0%);fill-opacity:1;" d="M 5.765625 6.515625 C 5.765625 6.515625 5.765625 6.519531 5.765625 6.519531 C 5.769531 6.519531 5.773438 6.523438 5.777344 6.527344 C 5.777344 6.527344 5.78125 6.53125 5.78125 6.53125 C 5.785156 6.53125 5.785156 6.535156 5.789062 6.535156 C 5.789062 6.539062 5.792969 6.539062 5.796875 6.539062 C 5.796875 6.542969 5.800781 6.542969 5.800781 6.542969 C 5.804688 6.546875 5.804688 6.546875 5.808594 6.546875 C 5.8125 6.546875 5.8125 6.550781 5.816406 6.550781 C 5.816406 6.550781 5.820312 6.550781 5.820312 6.554688 C 5.824219 6.554688 5.828125 6.554688 5.828125 6.554688 C 5.832031 6.554688 5.835938 6.558594 5.835938 6.558594 C 5.839844 6.558594 5.84375 6.558594 5.84375 6.558594 C 5.847656 6.558594 5.851562 6.558594 5.851562 6.5625 C 5.855469 6.5625 5.855469 6.5625 5.859375 6.5625 C 5.863281 6.5625 5.871094 6.5625 5.875 6.5625 C 5.878906 6.5625 5.886719 6.5625 5.890625 6.5625 C 5.894531 6.5625 5.894531 6.5625 5.898438 6.5625 C 5.898438 6.558594 5.902344 6.558594 5.90625 6.558594 C 5.90625 6.558594 5.910156 6.558594 5.914062 6.558594 C 5.914062 6.558594 5.917969 6.554688 5.921875 6.554688 C 5.921875 6.554688 5.925781 6.554688 5.929688 6.554688 C 5.929688 6.550781 5.933594 6.550781 5.933594 6.550781 C 5.9375 6.550781 5.9375 6.546875 5.941406 6.546875 C 5.945312 6.546875 5.945312 6.546875 5.949219 6.542969 C 5.949219 6.542969 5.953125 6.542969 5.953125 6.539062 C 5.957031 6.539062 5.960938 6.539062 5.960938 6.535156 C 5.964844 6.535156 5.964844 6.53125 5.96875 6.53125 C 5.96875 6.53125 5.972656 6.527344 5.972656 6.527344 C 5.976562 6.523438 5.980469 6.519531 5.984375 6.519531 C 5.984375 6.519531 5.984375 6.515625 5.984375 6.515625 L 6.296875 6.203125 C 6.359375 6.144531 6.359375 6.042969 6.296875 5.984375 C 6.238281 5.921875 6.136719 5.921875 6.078125 5.984375 L 6.03125 6.027344 L 6.03125 5.34375 C 6.03125 5.257812 5.960938 5.1875 5.875 5.1875 C 5.789062 5.1875 5.71875 5.257812 5.71875 5.34375 L 5.71875 6.027344 L 5.671875 5.984375 C 5.613281 5.921875 5.511719 5.921875 5.453125 5.984375 C 5.390625 6.042969 5.390625 6.144531 5.453125 6.203125 Z M 5.765625 6.515625 "/>
<path style=" stroke:none;fill-rule:nonzero;fill:rgb(0%,0%,0%);fill-opacity:1;" d="M 6.65625 6.554688 C 6.570312 6.554688 6.5 6.625 6.5 6.710938 L 6.5 6.75 L 5.25 6.75 L 5.25 6.710938 C 5.25 6.625 5.179688 6.554688 5.09375 6.554688 C 5.007812 6.554688 4.9375 6.625 4.9375 6.710938 L 4.9375 6.90625 C 4.9375 6.992188 5.007812 7.0625 5.09375 7.0625 L 6.65625 7.0625 C 6.742188 7.0625 6.8125 6.992188 6.8125 6.90625 L 6.8125 6.710938 C 6.8125 6.625 6.742188 6.554688 6.65625 6.554688 Z M 6.65625 6.554688 "/>
</g>
</svg>
