<?xml version="1.0" encoding="UTF-8"?>
<svg xmlns="http://www.w3.org/2000/svg" xmlns:xlink="http://www.w3.org/1999/xlink" width="8pt" height="8pt" viewBox="0 0 8 8" version="1.1">
<g id="surface1">
<path style=" stroke:none;fill-rule:nonzero;fill:rgb(99.215686%,74.117647%,25.098039%);fill-opacity:1;" d="M 7.867188 4 C 7.867188 6.136719 6.136719 7.867188 4 7.867188 C 1.863281 7.867188 0.132812 6.136719 0.132812 4 C 0.132812 1.863281 1.863281 0.132812 4 0.132812 C 6.136719 0.132812 7.867188 1.863281 7.867188 4 Z M 7.867188 4 "/>
<path style=" stroke:none;fill-rule:nonzero;fill:rgb(99.215686%,74.117647%,25.098039%);fill-opacity:1;" d="M 7.867188 4 C 7.867188 6.136719 6.136719 7.867188 4 7.867188 C 1.863281 7.867188 0.132812 6.136719 0.132812 4 C 0.132812 1.863281 1.863281 0.132812 4 0.132812 C 6.136719 0.132812 7.867188 1.863281 7.867188 4 Z M 7.867188 4 "/>
<path style=" stroke:none;fill-rule:nonzero;fill:rgb(98.823529%,94.117647%,35.294118%);fill-opacity:1;" d="M 4 7.464844 C 3.925781 7.464844 3.867188 7.40625 3.867188 7.332031 C 3.867188 7.257812 3.925781 7.199219 4 7.199219 C 5.765625 7.199219 7.199219 5.765625 7.199219 4 C 7.199219 3.925781 7.257812 3.867188 7.332031 3.867188 C 7.40625 3.867188 7.464844 3.925781 7.464844 4 C 7.464844 5.914062 5.914062 7.464844 4 7.464844 Z M 4 7.464844 "/>
<path style=" stroke:none;fill-rule:nonzero;fill:rgb(98.823529%,94.117647%,35.294118%);fill-opacity:1;" d="M 0.667969 4.132812 C 0.59375 4.132812 0.535156 4.074219 0.535156 4 C 0.535156 2.085938 2.085938 0.535156 4 0.535156 C 4.074219 0.535156 4.132812 0.59375 4.132812 0.667969 C 4.132812 0.742188 4.074219 0.800781 4 0.800781 C 2.234375 0.800781 0.800781 2.234375 0.800781 4 C 0.800781 4.074219 0.742188 4.132812 0.667969 4.132812 Z M 0.667969 4.132812 "/>
<path style=" stroke:none;fill-rule:nonzero;fill:rgb(37.254902%,47.45098%,72.941176%);fill-opacity:1;" d="M 4 2.132812 C 4.148438 2.132812 4.265625 2.253906 4.265625 2.398438 C 4.265625 2.546875 4.148438 2.667969 4 2.667969 C 3.851562 2.667969 3.734375 2.546875 3.734375 2.398438 C 3.734375 2.253906 3.851562 2.132812 4 2.132812 Z M 4 2.132812 "/>
<path style=" stroke:none;fill-rule:nonzero;fill:rgb(37.254902%,47.45098%,72.941176%);fill-opacity:1;" d="M 4.265625 5.464844 L 4.265625 3.199219 L 3.199219 3.199219 L 3.199219 3.464844 C 3.199219 3.539062 3.257812 3.601562 3.332031 3.601562 L 3.734375 3.601562 L 3.734375 5.867188 L 4.800781 5.867188 L 4.800781 5.601562 C 4.800781 5.527344 4.742188 5.464844 4.667969 5.464844 Z M 4.265625 5.464844 "/>
<path style=" stroke:none;fill-rule:nonzero;fill:rgb(0%,0%,0%);fill-opacity:1;" d="M 4 0 C 1.789062 0 0 1.789062 0 4 C 0 6.210938 1.789062 8 4 8 C 6.210938 8 8 6.210938 8 4 C 7.996094 1.792969 6.207031 0.00390625 4 0 Z M 4 7.734375 C 1.9375 7.734375 0.265625 6.0625 0.265625 4 C 0.265625 1.9375 1.9375 0.265625 4 0.265625 C 6.0625 0.265625 7.734375 1.9375 7.734375 4 C 7.730469 6.0625 6.0625 7.730469 4 7.734375 Z M 4 7.734375 "/>
<path style=" stroke:none;fill-rule:nonzero;fill:rgb(0%,0%,0%);fill-opacity:1;" d="M 4 7.199219 C 3.925781 7.199219 3.867188 7.257812 3.867188 7.332031 C 3.867188 7.40625 3.925781 7.464844 4 7.464844 C 5.914062 7.464844 7.464844 5.914062 7.464844 4 C 7.464844 3.925781 7.40625 3.867188 7.332031 3.867188 C 7.257812 3.867188 7.199219 3.925781 7.199219 4 C 7.199219 5.765625 5.765625 7.199219 4 7.199219 Z M 4 7.199219 "/>
<path style=" stroke:none;fill-rule:nonzero;fill:rgb(0%,0%,0%);fill-opacity:1;" d="M 4.132812 0.667969 C 4.132812 0.59375 4.074219 0.535156 4 0.535156 C 2.085938 0.535156 0.535156 2.085938 0.535156 4 C 0.535156 4.074219 0.59375 4.132812 0.667969 4.132812 C 0.742188 4.132812 0.800781 4.074219 0.800781 4 C 0.800781 2.234375 2.234375 0.800781 4 0.800781 C 4.074219 0.800781 4.132812 0.742188 4.132812 0.667969 Z M 4.132812 0.667969 "/>
<path style=" stroke:none;fill-rule:nonzero;fill:rgb(0%,0%,0%);fill-opacity:1;" d="M 3.601562 2.398438 C 3.601562 2.621094 3.777344 2.800781 4 2.800781 C 4.222656 2.800781 4.398438 2.621094 4.398438 2.398438 C 4.398438 2.179688 4.222656 2 4 2 C 3.777344 2 3.601562 2.179688 3.601562 2.398438 Z M 4.132812 2.398438 C 4.132812 2.472656 4.074219 2.535156 4 2.535156 C 3.925781 2.535156 3.867188 2.472656 3.867188 2.398438 C 3.867188 2.328125 3.925781 2.265625 4 2.265625 C 4.074219 2.265625 4.132812 2.328125 4.132812 2.398438 Z M 4.132812 2.398438 "/>
<path style=" stroke:none;fill-rule:nonzero;fill:rgb(0%,0%,0%);fill-opacity:1;" d="M 4.933594 6 L 4.933594 5.601562 C 4.933594 5.453125 4.8125 5.332031 4.667969 5.332031 L 4.398438 5.332031 L 4.398438 3.066406 L 3.066406 3.066406 L 3.066406 3.464844 C 3.066406 3.613281 3.1875 3.734375 3.332031 3.734375 L 3.601562 3.734375 L 3.601562 6 Z M 3.332031 3.464844 L 3.332031 3.332031 L 4.132812 3.332031 L 4.132812 5.601562 L 4.667969 5.601562 L 4.667969 5.734375 L 3.867188 5.734375 L 3.867188 3.464844 Z M 3.332031 3.464844 "/>
</g>
</svg>
