<?xml version="1.0" encoding="UTF-8"?>
<svg xmlns="http://www.w3.org/2000/svg" xmlns:xlink="http://www.w3.org/1999/xlink" width="8pt" height="8pt" viewBox="0 0 8 8" version="1.1">
<g id="surface1">
<path style=" stroke:none;fill-rule:evenodd;fill:rgb(93.72549%,19.215686%,29.803922%);fill-opacity:1;" d="M 4 7.867188 C 4 7.867188 6.667969 4.761719 6.667969 2.742188 C 6.648438 1.285156 5.457031 0.117188 4 0.132812 C 2.542969 0.117188 1.351562 1.285156 1.332031 2.742188 C 1.332031 4.761719 4 7.867188 4 7.867188 Z M 4 7.867188 "/>
<path style=" stroke:none;fill-rule:evenodd;fill:rgb(73.333333%,9.803922%,23.137255%);fill-opacity:1;" d="M 4 0.132812 C 3.933594 0.132812 3.867188 0.136719 3.800781 0.144531 C 5.175781 0.230469 6.25 1.363281 6.265625 2.742188 C 6.265625 4.421875 4.417969 6.855469 3.800781 7.625 C 3.925781 7.777344 4 7.867188 4 7.867188 C 4 7.867188 6.667969 4.761719 6.667969 2.742188 C 6.648438 1.285156 5.457031 0.117188 4 0.132812 Z M 4 0.132812 "/>
<path style=" stroke:none;fill-rule:nonzero;fill:rgb(100%,86.27451%,0%);fill-opacity:1;" d="M 5.199219 2.800781 C 5.199219 3.460938 4.664062 4 4 4 C 3.335938 4 2.800781 3.460938 2.800781 2.800781 C 2.800781 2.136719 3.335938 1.601562 4 1.601562 C 4.664062 1.601562 5.199219 2.136719 5.199219 2.800781 Z M 5.199219 2.800781 "/>
<path style=" stroke:none;fill-rule:evenodd;fill:rgb(99.607843%,75.686275%,3.137255%);fill-opacity:1;" d="M 4 1.601562 C 3.933594 1.601562 3.867188 1.605469 3.800781 1.617188 C 4.378906 1.714844 4.800781 2.214844 4.800781 2.800781 C 4.800781 3.386719 4.378906 3.886719 3.800781 3.980469 C 4.246094 4.058594 4.699219 3.878906 4.972656 3.515625 C 5.242188 3.148438 5.28125 2.660156 5.078125 2.257812 C 4.871094 1.851562 4.453125 1.597656 4 1.601562 Z M 4 1.601562 "/>
<path style=" stroke:none;fill-rule:nonzero;fill:rgb(96.078431%,96.078431%,96.078431%);fill-opacity:1;" d="M 1.867188 2.933594 C 1.792969 2.933594 1.734375 2.875 1.734375 2.800781 C 1.734375 2.65625 1.746094 2.515625 1.773438 2.375 C 1.78125 2.328125 1.816406 2.289062 1.859375 2.273438 C 1.90625 2.257812 1.957031 2.269531 1.992188 2.300781 C 2.027344 2.332031 2.042969 2.378906 2.035156 2.425781 C 2.011719 2.546875 2 2.675781 2 2.800781 C 2 2.835938 1.984375 2.871094 1.960938 2.894531 C 1.9375 2.917969 1.902344 2.933594 1.867188 2.933594 Z M 1.867188 2.933594 "/>
<path style=" stroke:none;fill-rule:nonzero;fill:rgb(96.078431%,96.078431%,96.078431%);fill-opacity:1;" d="M 2.152344 1.867188 C 2.105469 1.867188 2.058594 1.839844 2.035156 1.800781 C 2.011719 1.757812 2.011719 1.707031 2.035156 1.667969 C 2.441406 0.964844 3.191406 0.535156 4 0.535156 C 4.074219 0.535156 4.132812 0.59375 4.132812 0.667969 C 4.132812 0.742188 4.074219 0.800781 4 0.800781 C 3.285156 0.800781 2.625 1.183594 2.265625 1.800781 C 2.242188 1.839844 2.199219 1.867188 2.152344 1.867188 Z M 2.152344 1.867188 "/>
<path style=" stroke:none;fill-rule:nonzero;fill:rgb(0%,0%,0%);fill-opacity:1;" d="M 5.332031 2.800781 C 5.332031 2.308594 5.0625 1.855469 4.628906 1.625 C 4.195312 1.390625 3.667969 1.417969 3.257812 1.691406 C 3.199219 1.730469 3.179688 1.816406 3.222656 1.875 C 3.261719 1.9375 3.347656 1.953125 3.40625 1.914062 C 3.84375 1.625 4.421875 1.691406 4.777344 2.074219 C 5.132812 2.457031 5.15625 3.039062 4.835938 3.453125 C 4.515625 3.863281 3.945312 3.980469 3.488281 3.730469 C 3.03125 3.480469 2.820312 2.9375 2.996094 2.445312 C 3.019531 2.375 2.980469 2.296875 2.914062 2.273438 C 2.84375 2.25 2.765625 2.285156 2.742188 2.355469 C 2.566406 2.855469 2.703125 3.414062 3.089844 3.773438 C 3.480469 4.136719 4.046875 4.234375 4.53125 4.023438 C 5.019531 3.808594 5.332031 3.332031 5.332031 2.800781 Z M 5.332031 2.800781 "/>
<path style=" stroke:none;fill-rule:nonzero;fill:rgb(0%,0%,0%);fill-opacity:1;" d="M 0.132812 8 L 0.398438 8 C 0.472656 8 0.535156 7.941406 0.535156 7.867188 C 0.535156 7.792969 0.472656 7.734375 0.398438 7.734375 L 0.132812 7.734375 C 0.0585938 7.734375 0 7.792969 0 7.867188 C 0 7.941406 0.0585938 8 0.132812 8 Z M 0.132812 8 "/>
<path style=" stroke:none;fill-rule:nonzero;fill:rgb(0%,0%,0%);fill-opacity:1;" d="M 7.867188 7.734375 L 7.601562 7.734375 C 7.527344 7.734375 7.464844 7.792969 7.464844 7.867188 C 7.464844 7.941406 7.527344 8 7.601562 8 L 7.867188 8 C 7.941406 8 8 7.941406 8 7.867188 C 8 7.792969 7.941406 7.734375 7.867188 7.734375 Z M 7.867188 7.734375 "/>
<path style=" stroke:none;fill-rule:nonzero;fill:rgb(0%,0%,0%);fill-opacity:1;" d="M 0.800781 7.867188 C 0.800781 7.941406 0.859375 8 0.933594 8 L 7.066406 8 C 7.140625 8 7.199219 7.941406 7.199219 7.867188 C 7.199219 7.792969 7.140625 7.734375 7.066406 7.734375 L 4.285156 7.734375 C 4.894531 6.984375 6.800781 4.496094 6.800781 2.742188 C 6.78125 1.210938 5.53125 -0.015625 4 0 C 2.46875 -0.015625 1.21875 1.210938 1.199219 2.742188 C 1.199219 4.496094 3.105469 6.984375 3.714844 7.734375 L 0.933594 7.734375 C 0.859375 7.734375 0.800781 7.792969 0.800781 7.867188 Z M 4 0.265625 C 5.382812 0.253906 6.515625 1.359375 6.535156 2.742188 C 6.535156 4.464844 4.484375 7.066406 4 7.660156 C 3.515625 7.066406 1.464844 4.464844 1.464844 2.742188 C 1.484375 1.359375 2.617188 0.253906 4 0.265625 Z M 4 0.265625 "/>
<path style=" stroke:none;fill-rule:nonzero;fill:rgb(0%,0%,0%);fill-opacity:1;" d="M 0.800781 0 C 0.726562 0 0.667969 0.0585938 0.667969 0.132812 L 0.667969 0.398438 C 0.667969 0.472656 0.726562 0.535156 0.800781 0.535156 C 0.875 0.535156 0.933594 0.472656 0.933594 0.398438 L 0.933594 0.132812 C 0.933594 0.0585938 0.875 0 0.800781 0 Z M 0.800781 0 "/>
<path style=" stroke:none;fill-rule:nonzero;fill:rgb(0%,0%,0%);fill-opacity:1;" d="M 0.800781 1.066406 C 0.726562 1.066406 0.667969 1.125 0.667969 1.199219 L 0.667969 1.464844 C 0.667969 1.539062 0.726562 1.601562 0.800781 1.601562 C 0.875 1.601562 0.933594 1.539062 0.933594 1.464844 L 0.933594 1.199219 C 0.933594 1.125 0.875 1.066406 0.800781 1.066406 Z M 0.800781 1.066406 "/>
<path style=" stroke:none;fill-rule:nonzero;fill:rgb(0%,0%,0%);fill-opacity:1;" d="M 0.398438 0.667969 L 0.132812 0.667969 C 0.0585938 0.667969 0 0.726562 0 0.800781 C 0 0.875 0.0585938 0.933594 0.132812 0.933594 L 0.398438 0.933594 C 0.472656 0.933594 0.535156 0.875 0.535156 0.800781 C 0.535156 0.726562 0.472656 0.667969 0.398438 0.667969 Z M 0.398438 0.667969 "/>
<path style=" stroke:none;fill-rule:nonzero;fill:rgb(0%,0%,0%);fill-opacity:1;" d="M 1.464844 0.667969 L 1.199219 0.667969 C 1.125 0.667969 1.066406 0.726562 1.066406 0.800781 C 1.066406 0.875 1.125 0.933594 1.199219 0.933594 L 1.464844 0.933594 C 1.539062 0.933594 1.601562 0.875 1.601562 0.800781 C 1.601562 0.726562 1.539062 0.667969 1.464844 0.667969 Z M 1.464844 0.667969 "/>
<path style=" stroke:none;fill-rule:nonzero;fill:rgb(0%,0%,0%);fill-opacity:1;" d="M 6.800781 5.464844 C 6.726562 5.464844 6.667969 5.527344 6.667969 5.601562 L 6.667969 5.867188 C 6.667969 5.941406 6.726562 6 6.800781 6 C 6.875 6 6.933594 5.941406 6.933594 5.867188 L 6.933594 5.601562 C 6.933594 5.527344 6.875 5.464844 6.800781 5.464844 Z M 6.800781 5.464844 "/>
<path style=" stroke:none;fill-rule:nonzero;fill:rgb(0%,0%,0%);fill-opacity:1;" d="M 6.800781 6.535156 C 6.726562 6.535156 6.667969 6.59375 6.667969 6.667969 L 6.667969 6.933594 C 6.667969 7.007812 6.726562 7.066406 6.800781 7.066406 C 6.875 7.066406 6.933594 7.007812 6.933594 6.933594 L 6.933594 6.667969 C 6.933594 6.59375 6.875 6.535156 6.800781 6.535156 Z M 6.800781 6.535156 "/>
<path style=" stroke:none;fill-rule:nonzero;fill:rgb(0%,0%,0%);fill-opacity:1;" d="M 6.398438 6.132812 L 6.132812 6.132812 C 6.058594 6.132812 6 6.191406 6 6.265625 C 6 6.339844 6.058594 6.398438 6.132812 6.398438 L 6.398438 6.398438 C 6.472656 6.398438 6.535156 6.339844 6.535156 6.265625 C 6.535156 6.191406 6.472656 6.132812 6.398438 6.132812 Z M 6.398438 6.132812 "/>
<path style=" stroke:none;fill-rule:nonzero;fill:rgb(0%,0%,0%);fill-opacity:1;" d="M 7.464844 6.132812 L 7.199219 6.132812 C 7.125 6.132812 7.066406 6.191406 7.066406 6.265625 C 7.066406 6.339844 7.125 6.398438 7.199219 6.398438 L 7.464844 6.398438 C 7.539062 6.398438 7.601562 6.339844 7.601562 6.265625 C 7.601562 6.191406 7.539062 6.132812 7.464844 6.132812 Z M 7.464844 6.132812 "/>
</g>
</svg>
