<?xml version="1.0" encoding="UTF-8"?>
<svg xmlns="http://www.w3.org/2000/svg" xmlns:xlink="http://www.w3.org/1999/xlink" width="8pt" height="8pt" viewBox="0 0 8 8" version="1.1">
<g id="surface1">
<path style=" stroke:none;fill-rule:nonzero;fill:rgb(5.882353%,47.843137%,31.0.20392%);fill-opacity:1;" d="M 4.890625 5.003906 C 4.890625 5.582031 4.421875 6.050781 3.839844 6.050781 C 3.261719 6.050781 2.792969 5.582031 2.792969 5.003906 C 2.792969 4.421875 3.261719 3.953125 3.839844 3.953125 C 4.421875 3.953125 4.890625 4.421875 4.890625 5.003906 Z M 4.890625 5.003906 "/>
<path style=" stroke:none;fill-rule:nonzero;fill:rgb(4.705882%,40.784314%,25.882353%);fill-opacity:1;" d="M 4.890625 5.003906 C 4.890625 5.582031 4.421875 6.050781 3.839844 6.050781 C 3.59375 6.050781 3.367188 5.964844 3.1875 5.824219 C 3.28125 5.851562 3.378906 5.867188 3.484375 5.867188 C 4.0625 5.867188 4.53125 5.394531 4.53125 4.816406 C 4.53125 4.484375 4.378906 4.1875 4.136719 3.996094 C 4.574219 4.125 4.890625 4.527344 4.890625 5.003906 Z M 4.890625 5.003906 "/>
<path style=" stroke:none;fill-rule:nonzero;fill:rgb(8.235294%,56.078431%,36.862745%);fill-opacity:1;" d="M 6.507812 2.496094 C 6.507812 3.074219 6.039062 3.546875 5.460938 3.546875 C 4.878906 3.546875 4.410156 3.074219 4.410156 2.496094 C 4.410156 1.917969 4.878906 1.445312 5.460938 1.445312 C 6.039062 1.445312 6.507812 1.917969 6.507812 2.496094 Z M 6.507812 2.496094 "/>
<path style=" stroke:none;fill-rule:nonzero;fill:rgb(5.882353%,47.843137%,31.0.20392%);fill-opacity:1;" d="M 6.507812 2.496094 C 6.507812 3.074219 6.039062 3.546875 5.460938 3.546875 C 5.375 3.546875 5.292969 3.535156 5.214844 3.515625 C 5.679688 3.40625 6.023438 2.992188 6.023438 2.496094 C 6.023438 2 5.679688 1.585938 5.214844 1.476562 C 5.292969 1.457031 5.375 1.445312 5.460938 1.445312 C 6.039062 1.445312 6.507812 1.917969 6.507812 2.496094 Z M 6.507812 2.496094 "/>
<path style=" stroke:none;fill-rule:nonzero;fill:rgb(8.235294%,56.078431%,36.862745%);fill-opacity:1;" d="M 7.882812 3.925781 C 7.882812 4.503906 7.414062 4.972656 6.832031 4.972656 C 6.253906 4.972656 5.785156 4.503906 5.785156 3.925781 C 5.785156 3.34375 6.253906 2.875 6.832031 2.875 C 7.414062 2.875 7.882812 3.34375 7.882812 3.925781 Z M 7.882812 3.925781 "/>
<path style=" stroke:none;fill-rule:nonzero;fill:rgb(5.882353%,47.843137%,31.0.20392%);fill-opacity:1;" d="M 7.882812 3.925781 C 7.882812 4.503906 7.414062 4.972656 6.832031 4.972656 C 6.738281 4.972656 6.644531 4.960938 6.558594 4.9375 C 7.070312 4.871094 7.46875 4.429688 7.46875 3.898438 C 7.46875 3.414062 7.140625 3.007812 6.695312 2.886719 C 6.742188 2.878906 6.785156 2.875 6.832031 2.875 C 7.414062 2.875 7.882812 3.34375 7.882812 3.925781 Z M 7.882812 3.925781 "/>
<path style=" stroke:none;fill-rule:nonzero;fill:rgb(82.352941%,94.117647%,63.529412%);fill-opacity:1;" d="M 6.160156 5.789062 C 5.707031 5.789062 5.339844 5.421875 5.339844 4.96875 L 5.339844 3.179688 C 5.339844 2.726562 5.707031 2.359375 6.160156 2.359375 C 6.613281 2.359375 6.980469 2.726562 6.980469 3.179688 L 6.980469 4.96875 C 6.980469 5.421875 6.613281 5.789062 6.160156 5.789062 Z M 6.160156 5.789062 "/>
<path style=" stroke:none;fill-rule:nonzero;fill:rgb(73.72549%,91.764706%,45.098039%);fill-opacity:1;" d="M 6.980469 3.179688 L 6.980469 4.96875 C 6.980469 5.421875 6.613281 5.789062 6.160156 5.789062 C 6.089844 5.789062 6.023438 5.78125 5.957031 5.765625 C 6.3125 5.675781 6.578125 5.351562 6.578125 4.96875 L 6.578125 3.179688 C 6.578125 2.953125 6.484375 2.746094 6.335938 2.597656 C 6.234375 2.496094 6.105469 2.421875 5.957031 2.382812 C 6.023438 2.367188 6.089844 2.359375 6.160156 2.359375 C 6.386719 2.359375 6.589844 2.453125 6.738281 2.597656 C 6.886719 2.746094 6.980469 2.953125 6.980469 3.179688 Z M 6.980469 3.179688 "/>
<path style=" stroke:none;fill-rule:nonzero;fill:rgb(82.352941%,94.117647%,63.529412%);fill-opacity:1;" d="M 1.988281 3.738281 C 1.535156 3.738281 1.167969 3.371094 1.167969 2.921875 L 1.167969 1.773438 C 1.167969 1.320312 1.535156 0.953125 1.988281 0.953125 C 2.441406 0.953125 2.808594 1.320312 2.808594 1.773438 L 2.808594 2.921875 C 2.808594 3.371094 2.441406 3.738281 1.988281 3.738281 Z M 1.988281 3.738281 "/>
<path style=" stroke:none;fill-rule:nonzero;fill:rgb(73.72549%,91.764706%,45.098039%);fill-opacity:1;" d="M 2.808594 1.773438 L 2.808594 2.921875 C 2.808594 3.371094 2.441406 3.738281 1.988281 3.738281 C 1.910156 3.738281 1.835938 3.730469 1.765625 3.707031 C 2.109375 3.613281 2.359375 3.296875 2.359375 2.921875 L 2.359375 1.773438 C 2.359375 1.546875 2.269531 1.34375 2.121094 1.195312 C 2.023438 1.097656 1.902344 1.0.23438 1.765625 1.0.24375 C 1.835938 0.964844 1.910156 0.953125 1.988281 0.953125 C 2.214844 0.953125 2.417969 1.046875 2.566406 1.195312 C 2.714844 1.34375 2.808594 1.546875 2.808594 1.773438 Z M 2.808594 1.773438 "/>
<path style=" stroke:none;fill-rule:nonzero;fill:rgb(11.0.20392%,64.705882%,43.529412%);fill-opacity:1;" d="M 4.378906 4.003906 C 4.378906 4.691406 3.824219 5.246094 3.136719 5.246094 C 2.449219 5.246094 1.894531 4.691406 1.894531 4.003906 C 1.894531 3.316406 2.449219 2.761719 3.136719 2.761719 C 3.824219 2.761719 4.378906 3.316406 4.378906 4.003906 Z M 4.378906 4.003906 "/>
<path style=" stroke:none;fill-rule:nonzero;fill:rgb(8.235294%,56.078431%,36.862745%);fill-opacity:1;" d="M 4.378906 4.003906 C 4.378906 4.691406 3.824219 5.246094 3.136719 5.246094 C 2.941406 5.246094 2.753906 5.203125 2.585938 5.121094 C 3.164062 5.011719 3.605469 4.507812 3.605469 3.898438 C 3.605469 3.40625 3.320312 2.984375 2.910156 2.78125 C 2.984375 2.769531 3.058594 2.761719 3.136719 2.761719 C 3.824219 2.761719 4.378906 3.316406 4.378906 4.003906 Z M 4.378906 4.003906 "/>
<path style=" stroke:none;fill-rule:nonzero;fill:rgb(63.921569%,89.411765%,25.098039%);fill-opacity:1;" d="M 5.460938 4.269531 C 5.460938 5.710938 5.089844 5.6875 4.632812 5.6875 C 4.175781 5.6875 3.808594 5.710938 3.808594 4.269531 C 3.808594 2.828125 4.273438 1.203125 4.632812 1.203125 C 4.992188 1.203125 5.460938 2.828125 5.460938 4.269531 Z M 5.460938 4.269531 "/>
<path style=" stroke:none;fill-rule:nonzero;fill:rgb(63.921569%,89.411765%,25.098039%);fill-opacity:1;" d="M 5.460938 4.269531 C 5.460938 5.710938 5.089844 5.6875 4.632812 5.6875 C 4.175781 5.6875 3.808594 5.710938 3.808594 4.269531 C 3.808594 2.828125 4.273438 1.203125 4.632812 1.203125 C 4.992188 1.203125 5.460938 2.828125 5.460938 4.269531 Z M 5.460938 4.269531 "/>
<path style=" stroke:none;fill-rule:nonzero;fill:rgb(60%,83.529412%,23.137255%);fill-opacity:1;" d="M 5.460938 4.269531 C 5.460938 5.710938 5.089844 5.6875 4.632812 5.6875 C 4.558594 5.6875 4.488281 5.6875 4.417969 5.679688 C 4.769531 5.65625 5.027344 5.476562 5.027344 4.269531 C 5.027344 3.105469 4.726562 1.820312 4.417969 1.371094 C 4.492188 1.261719 4.5625 1.203125 4.632812 1.203125 C 4.992188 1.203125 5.460938 2.828125 5.460938 4.269531 Z M 5.460938 4.269531 "/>
<path style=" stroke:none;fill-rule:nonzero;fill:rgb(63.921569%,89.411765%,25.098039%);fill-opacity:1;" d="M 0.125 5.320312 C 0.125 6.433594 0.625 6.410156 1.242188 6.410156 C 1.859375 6.410156 2.359375 6.433594 2.359375 5.320312 C 2.359375 4.210938 1.730469 2.960938 1.242188 2.960938 C 0.757812 2.960938 0.125 4.210938 0.125 5.320312 Z M 0.125 5.320312 "/>
<path style=" stroke:none;fill-rule:nonzero;fill:rgb(60%,83.529412%,23.137255%);fill-opacity:1;" d="M 0.125 5.320312 C 0.125 6.433594 0.625 6.410156 1.242188 6.410156 C 1.859375 6.410156 2.359375 6.433594 2.359375 5.320312 C 2.359375 4.210938 1.730469 2.960938 1.242188 2.960938 C 0.757812 2.960938 0.125 4.210938 0.125 5.320312 Z M 0.125 5.320312 "/>
<path style=" stroke:none;fill-rule:nonzero;fill:rgb(55.294118%,77.647059%,21.568627%);fill-opacity:1;" d="M 2.359375 5.320312 C 2.359375 6.433594 1.859375 6.410156 1.242188 6.410156 C 1.164062 6.410156 1.085938 6.414062 1.007812 6.410156 C 1.515625 6.398438 1.894531 6.289062 1.894531 5.320312 C 1.894531 4.382812 1.441406 3.34375 1.007812 3.042969 C 1.089844 2.988281 1.167969 2.960938 1.242188 2.960938 C 1.730469 2.960938 2.359375 4.210938 2.359375 5.320312 Z M 2.359375 5.320312 "/>
<path style=" stroke:none;fill-rule:nonzero;fill:rgb(63.921569%,89.411765%,25.098039%);fill-opacity:1;" d="M 3.425781 5.363281 C 3.425781 6.183594 3.054688 6.167969 2.601562 6.167969 C 2.144531 6.167969 1.773438 6.183594 1.773438 5.363281 C 1.773438 4.542969 2.242188 3.617188 2.601562 3.617188 C 2.960938 3.617188 3.425781 4.542969 3.425781 5.363281 Z M 3.425781 5.363281 "/>
<path style=" stroke:none;fill-rule:nonzero;fill:rgb(63.921569%,89.411765%,25.098039%);fill-opacity:1;" d="M 3.425781 5.363281 C 3.425781 6.183594 3.054688 6.167969 2.601562 6.167969 C 2.144531 6.167969 1.773438 6.183594 1.773438 5.363281 C 1.773438 4.542969 2.242188 3.617188 2.601562 3.617188 C 2.960938 3.617188 3.425781 4.542969 3.425781 5.363281 Z M 3.425781 5.363281 "/>
<path style=" stroke:none;fill-rule:nonzero;fill:rgb(60%,83.529412%,23.137255%);fill-opacity:1;" d="M 3.425781 5.363281 C 3.425781 6.183594 3.054688 6.167969 2.601562 6.167969 C 2.515625 6.167969 2.433594 6.167969 2.355469 6.164062 C 2.691406 6.144531 2.9375 6.03125 2.9375 5.363281 C 2.9375 4.722656 2.652344 4.015625 2.355469 3.738281 C 2.4375 3.660156 2.523438 3.617188 2.601562 3.617188 C 2.960938 3.617188 3.425781 4.542969 3.425781 5.363281 Z M 3.425781 5.363281 "/>
<path style=" stroke:none;fill-rule:nonzero;fill:rgb(63.921569%,89.411765%,25.098039%);fill-opacity:1;" d="M 7.828125 5.761719 C 7.828125 6.355469 7.5625 6.34375 7.234375 6.34375 C 6.902344 6.34375 6.636719 6.355469 6.636719 5.761719 C 6.636719 5.171875 6.972656 4.503906 7.234375 4.503906 C 7.492188 4.503906 7.828125 5.171875 7.828125 5.761719 Z M 7.828125 5.761719 "/>
<path style=" stroke:none;fill-rule:nonzero;fill:rgb(63.921569%,89.411765%,25.098039%);fill-opacity:1;" d="M 7.828125 5.761719 C 7.828125 6.355469 7.5625 6.34375 7.234375 6.34375 C 6.902344 6.34375 6.636719 6.355469 6.636719 5.761719 C 6.636719 5.171875 6.972656 4.503906 7.234375 4.503906 C 7.492188 4.503906 7.828125 5.171875 7.828125 5.761719 Z M 7.828125 5.761719 "/>
<path style=" stroke:none;fill-rule:nonzero;fill:rgb(60%,83.529412%,23.137255%);fill-opacity:1;" d="M 7.828125 5.761719 C 7.828125 6.355469 7.5625 6.34375 7.234375 6.34375 C 7.164062 6.34375 7.09375 6.34375 7.03125 6.339844 C 7.265625 6.320312 7.429688 6.230469 7.429688 5.761719 C 7.429688 5.316406 7.238281 4.828125 7.03125 4.613281 C 7.101562 4.546875 7.167969 4.503906 7.234375 4.503906 C 7.492188 4.503906 7.828125 5.171875 7.828125 5.761719 Z M 7.828125 5.761719 "/>
<path style=" stroke:none;fill-rule:nonzero;fill:rgb(0%,0%,0%);fill-opacity:1;" d="M 7.875 6.878906 L 7.351562 6.878906 L 7.351562 6.460938 C 7.488281 6.457031 7.617188 6.441406 7.726562 6.367188 C 7.875 6.265625 7.945312 6.070312 7.945312 5.761719 C 7.945312 5.421875 7.832031 5.019531 7.667969 4.742188 C 7.882812 4.519531 8 4.234375 8 3.925781 C 8 3.347656 7.570312 2.855469 7.003906 2.769531 C 6.917969 2.597656 6.785156 2.457031 6.617188 2.363281 C 6.550781 1.773438 6.054688 1.328125 5.460938 1.328125 C 5.304688 1.328125 5.15625 1.359375 5.015625 1.417969 C 4.894531 1.195312 4.765625 1.085938 4.632812 1.085938 C 4.496094 1.085938 4.371094 1.195312 4.25 1.425781 C 4.152344 1.605469 4.054688 1.859375 3.972656 2.164062 C 3.914062 2.375 3.863281 2.597656 3.824219 2.828125 C 3.617188 2.707031 3.382812 2.644531 3.136719 2.644531 C 3.066406 2.644531 2.992188 2.648438 2.925781 2.660156 L 2.925781 1.773438 C 2.925781 1.382812 2.675781 1.0.27344 2.308594 0.894531 C 2.246094 0.871094 2.179688 0.902344 2.15625 0.964844 C 2.136719 1.0.23438 2.167969 1.09375 2.226562 1.113281 C 2.503906 1.214844 2.691406 1.480469 2.691406 1.773438 L 2.691406 2.71875 C 2.464844 2.796875 2.261719 2.933594 2.105469 3.117188 L 2.105469 2.925781 L 2.332031 2.699219 C 2.375 2.652344 2.375 2.578125 2.332031 2.535156 C 2.285156 2.488281 2.210938 2.488281 2.164062 2.535156 L 2.105469 2.59375 L 2.105469 1.878906 C 2.105469 1.8125 2.054688 1.761719 1.988281 1.761719 C 1.921875 1.761719 1.871094 1.8125 1.871094 1.878906 L 1.871094 2.054688 L 1.753906 1.9375 C 1.707031 1.890625 1.632812 1.890625 1.585938 1.9375 C 1.542969 1.980469 1.542969 2.054688 1.585938 2.101562 L 1.871094 2.386719 L 1.871094 3.292969 C 1.699219 3.046875 1.5 2.867188 1.285156 2.84375 L 1.285156 1.773438 C 1.285156 1.480469 1.472656 1.214844 1.746094 1.113281 C 1.808594 1.09375 1.839844 1.0.23438 1.816406 0.964844 C 1.792969 0.902344 1.726562 0.871094 1.667969 0.894531 C 1.300781 1.03125 1.050781 1.382812 1.050781 1.773438 L 1.050781 2.886719 C 0.828125 2.988281 0.59375 3.261719 0.394531 3.671875 C 0.152344 4.175781 0.0078125 4.792969 0.0078125 5.320312 C 0.0078125 5.863281 0.125 6.199219 0.375 6.371094 C 0.582031 6.515625 0.84375 6.527344 1.125 6.527344 L 1.125 6.878906 L 0.117188 6.878906 C 0.0507812 6.878906 0 6.929688 0 6.996094 C 0 7.0625 0.0507812 7.113281 0.117188 7.113281 L 7.875 7.113281 C 7.9375 7.113281 7.992188 7.0625 7.992188 6.996094 C 7.992188 6.929688 7.9375 6.878906 7.875 6.878906 Z M 2.226562 6.269531 C 2.308594 6.28125 2.394531 6.285156 2.484375 6.285156 L 2.484375 6.878906 L 2.105469 6.878906 L 2.105469 6.375 C 2.148438 6.347656 2.1875 6.3125 2.226562 6.269531 Z M 2.71875 6.285156 C 2.824219 6.285156 2.925781 6.28125 3.019531 6.261719 L 3.019531 6.878906 L 2.71875 6.878906 Z M 3.949219 5.582031 C 4.0625 5.71875 4.195312 5.769531 4.339844 5.789062 C 4.191406 5.882812 4.019531 5.933594 3.839844 5.933594 C 3.714844 5.933594 3.589844 5.910156 3.476562 5.859375 C 3.519531 5.730469 3.542969 5.566406 3.542969 5.363281 C 3.542969 5.34375 3.542969 5.324219 3.542969 5.304688 C 3.625 5.277344 3.703125 5.246094 3.777344 5.207031 C 3.816406 5.367188 3.875 5.492188 3.949219 5.582031 Z M 3.257812 6.164062 C 3.296875 6.136719 3.332031 6.105469 3.363281 6.066406 C 3.503906 6.128906 3.652344 6.164062 3.804688 6.167969 L 3.804688 6.878906 L 3.253906 6.878906 Z M 4.039062 6.152344 C 4.210938 6.121094 4.375 6.054688 4.515625 5.953125 L 4.515625 6.878906 L 4.039062 6.878906 Z M 4.75 5.800781 C 4.84375 5.800781 4.933594 5.796875 5.019531 5.773438 L 5.019531 6.878906 L 4.75 6.878906 Z M 5.511719 5.652344 L 5.511719 6.878906 L 5.253906 6.878906 L 5.253906 5.648438 C 5.277344 5.628906 5.296875 5.609375 5.316406 5.582031 C 5.339844 5.554688 5.359375 5.523438 5.378906 5.488281 C 5.417969 5.546875 5.460938 5.605469 5.511719 5.652344 Z M 5.746094 5.808594 C 5.835938 5.855469 5.9375 5.886719 6.042969 5.898438 L 6.042969 6.878906 L 5.746094 6.878906 Z M 6.277344 5.898438 C 6.363281 5.886719 6.445312 5.867188 6.523438 5.832031 C 6.53125 6.101562 6.601562 6.273438 6.738281 6.367188 C 6.847656 6.441406 6.976562 6.457031 7.117188 6.460938 L 7.117188 6.878906 L 6.277344 6.878906 Z M 7.59375 6.175781 C 7.535156 6.214844 7.449219 6.222656 7.351562 6.226562 L 7.351562 6.015625 C 7.351562 6.011719 7.355469 6.011719 7.355469 6.007812 L 7.542969 5.820312 C 7.589844 5.777344 7.589844 5.703125 7.542969 5.65625 C 7.496094 5.609375 7.421875 5.609375 7.375 5.65625 L 7.351562 5.683594 L 7.351562 5.347656 C 7.351562 5.285156 7.296875 5.230469 7.234375 5.230469 C 7.167969 5.230469 7.117188 5.285156 7.117188 5.347656 L 7.117188 6.226562 C 7.015625 6.222656 6.929688 6.214844 6.871094 6.175781 C 6.792969 6.121094 6.753906 5.984375 6.753906 5.761719 C 6.753906 5.507812 6.824219 5.207031 6.941406 4.964844 C 7.0625 4.714844 7.183594 4.621094 7.234375 4.621094 C 7.28125 4.621094 7.402344 4.714844 7.523438 4.964844 C 7.640625 5.207031 7.710938 5.507812 7.710938 5.761719 C 7.710938 5.984375 7.671875 6.121094 7.59375 6.175781 Z M 7.765625 3.925781 C 7.765625 4.15625 7.679688 4.375 7.527344 4.546875 C 7.433594 4.449219 7.335938 4.386719 7.234375 4.386719 C 7.1875 4.386719 7.140625 4.398438 7.097656 4.421875 L 7.097656 3.179688 C 7.097656 3.128906 7.09375 3.078125 7.082031 3.027344 C 7.480469 3.136719 7.765625 3.503906 7.765625 3.925781 Z M 5.472656 3.015625 C 5.558594 2.710938 5.847656 2.476562 6.160156 2.476562 C 6.546875 2.476562 6.863281 2.792969 6.863281 3.179688 L 6.863281 4.640625 C 6.695312 4.875 6.570312 5.230469 6.53125 5.566406 C 6.453125 5.613281 6.367188 5.648438 6.277344 5.660156 L 6.277344 4.972656 L 6.503906 4.75 C 6.546875 4.703125 6.546875 4.628906 6.503906 4.582031 C 6.457031 4.539062 6.382812 4.539062 6.335938 4.582031 L 6.277344 4.644531 L 6.277344 3.929688 C 6.277344 3.863281 6.226562 3.8125 6.160156 3.8125 C 6.09375 3.8125 6.042969 3.863281 6.042969 3.929688 L 6.042969 4.105469 L 5.925781 3.984375 C 5.878906 3.941406 5.804688 3.941406 5.757812 3.984375 C 5.714844 4.03125 5.714844 4.105469 5.757812 4.152344 L 6.042969 4.433594 L 6.042969 5.660156 C 5.789062 5.621094 5.578125 5.441406 5.496094 5.191406 C 5.496094 5.191406 5.492188 5.191406 5.492188 5.191406 C 5.550781 4.964844 5.578125 4.664062 5.578125 4.269531 C 5.578125 3.875 5.539062 3.4375 5.472656 3.015625 Z M 4.632812 1.320312 C 4.660156 1.320312 4.796875 1.417969 4.964844 1.898438 C 4.988281 1.960938 5.054688 1.992188 5.117188 1.972656 C 5.175781 1.949219 5.207031 1.882812 5.1875 1.820312 C 5.164062 1.753906 5.140625 1.6875 5.113281 1.628906 C 5.222656 1.585938 5.339844 1.5625 5.460938 1.5625 C 5.894531 1.5625 6.257812 1.855469 6.363281 2.265625 C 6.296875 2.25 6.230469 2.242188 6.160156 2.242188 C 5.855469 2.242188 5.578125 2.390625 5.402344 2.625 C 5.386719 2.539062 5.367188 2.457031 5.347656 2.371094 C 5.332031 2.308594 5.269531 2.269531 5.207031 2.285156 C 5.144531 2.300781 5.105469 2.363281 5.121094 2.425781 C 5.261719 3.011719 5.34375 3.683594 5.34375 4.269531 C 5.34375 4.882812 5.273438 5.265625 5.132812 5.433594 C 5.042969 5.542969 4.929688 5.566406 4.75 5.566406 L 4.75 4.96875 L 5.128906 4.585938 C 5.175781 4.542969 5.175781 4.46875 5.128906 4.421875 C 5.085938 4.375 5.011719 4.375 4.964844 4.421875 L 4.75 4.636719 L 4.75 3.660156 C 4.75 3.59375 4.699219 3.542969 4.632812 3.542969 C 4.570312 3.542969 4.515625 3.59375 4.515625 3.660156 L 4.515625 3.90625 L 4.347656 3.738281 C 4.304688 3.691406 4.230469 3.691406 4.183594 3.738281 C 4.136719 3.785156 4.136719 3.859375 4.183594 3.902344 L 4.515625 4.234375 L 4.515625 5.566406 C 4.335938 5.566406 4.222656 5.542969 4.132812 5.433594 C 3.992188 5.265625 3.925781 4.882812 3.925781 4.269531 C 3.925781 3.613281 4.027344 2.851562 4.199219 2.226562 C 4.402344 1.480469 4.597656 1.320312 4.632812 1.320312 Z M 3.136719 2.878906 C 3.371094 2.878906 3.59375 2.949219 3.78125 3.082031 C 3.722656 3.484375 3.691406 3.894531 3.691406 4.269531 C 3.691406 4.542969 3.703125 4.773438 3.730469 4.960938 C 3.664062 5.003906 3.597656 5.035156 3.523438 5.0625 C 3.488281 4.746094 3.394531 4.421875 3.253906 4.132812 L 3.253906 3.847656 L 3.5 3.601562 C 3.546875 3.554688 3.546875 3.480469 3.5 3.4375 C 3.453125 3.390625 3.378906 3.390625 3.335938 3.4375 L 3.253906 3.515625 L 3.253906 3.382812 C 3.253906 3.316406 3.203125 3.265625 3.136719 3.265625 C 3.070312 3.265625 3.019531 3.316406 3.019531 3.382812 L 3.019531 3.753906 C 2.882812 3.589844 2.738281 3.5 2.601562 3.5 C 2.433594 3.5 2.28125 3.621094 2.148438 3.796875 C 2.125 3.742188 2.097656 3.691406 2.070312 3.636719 C 2.226562 3.183594 2.65625 2.878906 3.136719 2.878906 Z M 0.507812 6.179688 C 0.394531 6.101562 0.242188 5.925781 0.242188 5.320312 C 0.242188 4.824219 0.378906 4.246094 0.605469 3.777344 C 0.8125 3.351562 1.0625 3.078125 1.242188 3.078125 C 1.433594 3.078125 1.75 3.40625 1.992188 4.042969 C 1.921875 4.179688 1.859375 4.328125 1.8125 4.46875 C 1.789062 4.53125 1.824219 4.597656 1.882812 4.617188 C 1.945312 4.636719 2.011719 4.605469 2.03125 4.542969 C 2.199219 4.042969 2.457031 3.734375 2.601562 3.734375 C 2.695312 3.734375 2.875 3.890625 3.042969 4.234375 C 3.210938 4.578125 3.308594 5 3.308594 5.363281 C 3.308594 5.6875 3.25 5.886719 3.125 5.972656 C 3.027344 6.039062 2.882812 6.050781 2.71875 6.050781 L 2.71875 5.691406 L 3.097656 5.3125 C 3.144531 5.265625 3.144531 5.191406 3.097656 5.148438 C 3.050781 5.101562 2.976562 5.101562 2.933594 5.148438 L 2.71875 5.363281 L 2.71875 4.789062 C 2.71875 4.722656 2.664062 4.671875 2.601562 4.671875 C 2.535156 4.671875 2.484375 4.722656 2.484375 4.789062 L 2.484375 6.050781 C 2.316406 6.050781 2.171875 6.039062 2.074219 5.972656 C 1.953125 5.886719 1.890625 5.6875 1.890625 5.363281 C 1.890625 5.269531 1.898438 5.167969 1.910156 5.070312 C 1.917969 5.003906 1.875 4.945312 1.808594 4.9375 C 1.746094 4.929688 1.6875 4.972656 1.679688 5.039062 C 1.664062 5.148438 1.65625 5.257812 1.65625 5.363281 C 1.65625 5.777344 1.746094 6.03125 1.941406 6.164062 C 1.953125 6.171875 1.960938 6.179688 1.972656 6.183594 C 1.820312 6.285156 1.613281 6.292969 1.359375 6.292969 L 1.359375 5.070312 L 1.539062 4.890625 C 1.585938 4.84375 1.585938 4.769531 1.539062 4.726562 C 1.496094 4.679688 1.421875 4.679688 1.375 4.726562 L 1.359375 4.738281 L 1.359375 4.417969 C 1.359375 4.351562 1.308594 4.300781 1.242188 4.300781 C 1.179688 4.300781 1.125 4.351562 1.125 4.417969 L 1.125 5.417969 L 0.976562 5.273438 C 0.933594 5.226562 0.859375 5.226562 0.8125 5.273438 C 0.765625 5.316406 0.765625 5.390625 0.8125 5.4375 L 1.109375 5.734375 C 1.113281 5.738281 1.121094 5.742188 1.125 5.75 L 1.125 6.292969 C 0.875 6.292969 0.660156 6.285156 0.507812 6.179688 Z M 1.359375 6.527344 C 1.542969 6.527344 1.714844 6.523438 1.871094 6.480469 L 1.871094 6.878906 L 1.359375 6.878906 Z M 1.359375 6.527344 "/>
</g>
</svg>
