<?xml version="1.0" encoding="UTF-8"?>
<svg xmlns="http://www.w3.org/2000/svg" xmlns:xlink="http://www.w3.org/1999/xlink" width="8pt" height="8pt" viewBox="0 0 8 8" version="1.1">
<g id="surface1">
<path style=" stroke:none;fill-rule:nonzero;fill:rgb(100%,79.607843%,48.627451%);fill-opacity:1;" d="M 7.84375 0.71875 C 7.84375 1.03125 7.59375 1.28125 7.28125 1.28125 C 6.96875 1.28125 6.71875 1.03125 6.71875 0.71875 C 6.71875 0.40625 6.96875 0.15625 7.28125 0.15625 C 7.59375 0.15625 7.84375 0.40625 7.84375 0.71875 Z M 7.84375 0.71875 "/>
<path style=" stroke:none;fill-rule:nonzero;fill:rgb(96.470588%,51.372549%,55.294118%);fill-opacity:1;" d="M 1.28125 0.71875 C 1.28125 1.03125 1.03125 1.28125 0.71875 1.28125 C 0.40625 1.28125 0.15625 1.03125 0.15625 0.71875 C 0.15625 0.40625 0.40625 0.15625 0.71875 0.15625 C 1.03125 0.15625 1.28125 0.40625 1.28125 0.71875 Z M 1.28125 0.71875 "/>
<path style=" stroke:none;fill-rule:nonzero;fill:rgb(79.607843%,89.803922%,34.509804%);fill-opacity:1;" d="M 7.84375 7.28125 C 7.84375 7.59375 7.59375 7.84375 7.28125 7.84375 C 6.96875 7.84375 6.71875 7.59375 6.71875 7.28125 C 6.71875 6.96875 6.96875 6.71875 7.28125 6.71875 C 7.59375 6.71875 7.84375 6.96875 7.84375 7.28125 Z M 7.84375 7.28125 "/>
<path style=" stroke:none;fill-rule:nonzero;fill:rgb(56.862745%,87.058824%,96.078431%);fill-opacity:1;" d="M 1.28125 7.28125 C 1.28125 7.59375 1.03125 7.84375 0.71875 7.84375 C 0.40625 7.84375 0.15625 7.59375 0.15625 7.28125 C 0.15625 6.96875 0.40625 6.71875 0.71875 6.71875 C 1.03125 6.71875 1.28125 6.96875 1.28125 7.28125 Z M 1.28125 7.28125 "/>
<path style=" stroke:none;fill-rule:nonzero;fill:rgb(82.745098%,84.313725%,87.45098%);fill-opacity:1;" d="M 3.40625 6.257812 L 3.605469 6.8125 L 4.394531 6.8125 L 4.59375 6.257812 C 4.796875 6.207031 4.992188 6.125 5.179688 6.015625 L 5.707031 6.269531 L 6.269531 5.707031 L 6.015625 5.179688 C 6.125 4.992188 6.207031 4.796875 6.257812 4.59375 L 6.8125 4.394531 L 6.8125 3.605469 L 6.257812 3.40625 C 6.207031 3.203125 6.125 3.007812 6.015625 2.820312 L 6.269531 2.292969 L 5.707031 1.730469 L 5.179688 1.984375 C 4.992188 1.875 4.796875 1.792969 4.59375 1.742188 L 4.394531 1.1875 L 3.605469 1.1875 L 3.40625 1.742188 C 3.203125 1.792969 3.007812 1.875 2.820312 1.984375 L 2.292969 1.730469 L 1.730469 2.292969 L 1.984375 2.820312 C 1.875 3.007812 1.792969 3.203125 1.742188 3.40625 L 1.1875 3.605469 L 1.1875 4.394531 L 1.742188 4.59375 C 1.792969 4.796875 1.875 4.992188 1.984375 5.179688 L 1.730469 5.707031 L 2.292969 6.269531 L 2.820312 6.015625 C 3.007812 6.125 3.203125 6.207031 3.40625 6.257812 Z M 3.40625 6.257812 "/>
<path style=" stroke:none;fill-rule:nonzero;fill:rgb(100%,100%,100%);fill-opacity:1;" d="M 5.503906 4 C 5.503906 4.828125 4.832031 5.5 4.003906 5.5 C 3.171875 5.5 2.503906 4.828125 2.503906 4 C 2.503906 3.171875 3.171875 2.5 4.003906 2.5 C 4.832031 2.5 5.503906 3.171875 5.503906 4 Z M 5.503906 4 "/>
<path style=" stroke:none;fill-rule:nonzero;fill:rgb(56.862745%,87.058824%,96.078431%);fill-opacity:1;" d="M 4.332031 4.484375 L 3.671875 4.484375 C 3.316406 4.484375 3.027344 4.773438 3.027344 5.128906 L 3.03125 5.144531 C 3.292969 5.367188 3.632812 5.5 4.003906 5.5 C 4.371094 5.5 4.710938 5.367188 4.972656 5.144531 L 4.976562 5.128906 C 4.976562 4.773438 4.6875 4.484375 4.332031 4.484375 Z M 4.332031 4.484375 "/>
<path style=" stroke:none;fill-rule:nonzero;fill:rgb(100%,74.901961%,61.960784%);fill-opacity:1;" d="M 4.003906 3.425781 C 3.734375 3.425781 3.515625 3.644531 3.515625 3.914062 L 3.515625 3.996094 C 3.515625 4.265625 3.734375 4.484375 4.003906 4.484375 C 4.269531 4.484375 4.488281 4.265625 4.488281 3.996094 L 4.488281 3.914062 C 4.488281 3.644531 4.269531 3.425781 4.003906 3.425781 Z M 4.003906 3.425781 "/>
<path style=" stroke:none;fill-rule:nonzero;fill:rgb(0%,0%,0%);fill-opacity:1;" d="M 6.410156 5.640625 L 6.191406 5.183594 C 6.273438 5.035156 6.339844 4.875 6.386719 4.710938 L 6.863281 4.542969 C 6.925781 4.519531 6.96875 4.460938 6.96875 4.394531 L 6.96875 3.605469 C 6.96875 3.539062 6.925781 3.480469 6.863281 3.457031 L 6.386719 3.289062 C 6.339844 3.125 6.273438 2.964844 6.191406 2.816406 L 6.410156 2.359375 C 6.4375 2.296875 6.425781 2.226562 6.378906 2.179688 L 5.820312 1.621094 C 5.773438 1.574219 5.703125 1.5625 5.640625 1.589844 L 5.183594 1.808594 C 5.035156 1.726562 4.875 1.660156 4.710938 1.613281 L 4.542969 1.136719 C 4.519531 1.074219 4.460938 1.03125 4.394531 1.03125 L 3.605469 1.03125 C 3.539062 1.03125 3.480469 1.074219 3.457031 1.136719 L 3.289062 1.613281 C 3.125 1.660156 2.964844 1.726562 2.816406 1.808594 L 2.359375 1.589844 C 2.296875 1.5625 2.226562 1.574219 2.179688 1.621094 L 1.621094 2.179688 C 1.574219 2.226562 1.5625 2.296875 1.589844 2.359375 L 1.808594 2.816406 C 1.726562 2.964844 1.660156 3.125 1.613281 3.289062 L 1.136719 3.457031 C 1.074219 3.480469 1.03125 3.539062 1.03125 3.605469 L 1.03125 4.394531 C 1.03125 4.460938 1.074219 4.519531 1.136719 4.542969 L 1.613281 4.710938 C 1.660156 4.875 1.726562 5.035156 1.808594 5.183594 L 1.589844 5.640625 C 1.5625 5.703125 1.574219 5.773438 1.621094 5.820312 L 2.179688 6.378906 C 2.226562 6.425781 2.296875 6.4375 2.359375 6.410156 L 2.816406 6.191406 C 2.964844 6.273438 3.125 6.339844 3.289062 6.386719 L 3.457031 6.863281 C 3.480469 6.925781 3.539062 6.96875 3.605469 6.96875 L 4.394531 6.96875 C 4.460938 6.96875 4.519531 6.925781 4.542969 6.863281 L 4.710938 6.386719 C 4.875 6.339844 5.035156 6.273438 5.183594 6.191406 L 5.640625 6.410156 C 5.703125 6.4375 5.773438 6.425781 5.820312 6.378906 L 6.378906 5.820312 C 6.425781 5.773438 6.4375 5.703125 6.410156 5.640625 Z M 6.109375 4.550781 C 6.058594 4.746094 5.980469 4.929688 5.882812 5.101562 C 5.855469 5.144531 5.851562 5.199219 5.875 5.246094 L 6.078125 5.675781 L 5.675781 6.078125 L 5.246094 5.875 C 5.199219 5.851562 5.144531 5.855469 5.101562 5.882812 C 4.929688 5.980469 4.746094 6.058594 4.550781 6.109375 C 4.503906 6.121094 4.460938 6.160156 4.445312 6.207031 L 4.285156 6.65625 L 3.714844 6.65625 L 3.554688 6.207031 C 3.539062 6.160156 3.496094 6.121094 3.449219 6.109375 C 3.253906 6.058594 3.070312 5.980469 2.898438 5.882812 C 2.855469 5.855469 2.800781 5.851562 2.753906 5.875 L 2.324219 6.078125 L 1.921875 5.675781 L 2.125 5.246094 C 2.148438 5.199219 2.144531 5.144531 2.117188 5.101562 C 2.019531 4.929688 1.941406 4.746094 1.890625 4.550781 C 1.878906 4.503906 1.839844 4.460938 1.792969 4.445312 L 1.34375 4.285156 L 1.34375 3.714844 L 1.792969 3.554688 C 1.839844 3.539062 1.878906 3.496094 1.890625 3.449219 C 1.941406 3.253906 2.019531 3.070312 2.117188 2.898438 C 2.144531 2.855469 2.148438 2.800781 2.125 2.753906 L 1.921875 2.324219 L 2.324219 1.921875 L 2.753906 2.125 C 2.800781 2.148438 2.855469 2.144531 2.898438 2.117188 C 3.070312 2.019531 3.253906 1.941406 3.449219 1.890625 C 3.496094 1.878906 3.539062 1.839844 3.554688 1.792969 L 3.714844 1.34375 L 4.285156 1.34375 L 4.445312 1.792969 C 4.460938 1.839844 4.503906 1.878906 4.550781 1.890625 C 4.746094 1.941406 4.929688 2.019531 5.101562 2.117188 C 5.144531 2.144531 5.199219 2.148438 5.246094 2.125 L 5.675781 1.921875 L 6.078125 2.324219 L 5.875 2.753906 C 5.851562 2.800781 5.855469 2.855469 5.882812 2.898438 C 5.980469 3.070312 6.058594 3.253906 6.109375 3.449219 C 6.121094 3.496094 6.160156 3.539062 6.207031 3.554688 L 6.65625 3.714844 L 6.65625 4.285156 L 6.207031 4.445312 C 6.160156 4.460938 6.121094 4.503906 6.109375 4.550781 Z M 6.109375 4.550781 "/>
<path style=" stroke:none;fill-rule:nonzero;fill:rgb(0%,0%,0%);fill-opacity:1;" d="M 0.71875 1.4375 C 0.859375 1.4375 0.992188 1.394531 1.105469 1.324219 L 1.414062 1.636719 C 1.445312 1.667969 1.484375 1.683594 1.527344 1.683594 C 1.566406 1.683594 1.605469 1.667969 1.636719 1.636719 C 1.695312 1.574219 1.695312 1.476562 1.636719 1.414062 L 1.324219 1.105469 C 1.394531 0.992188 1.4375 0.859375 1.4375 0.71875 C 1.4375 0.324219 1.113281 0 0.71875 0 C 0.324219 0 0 0.324219 0 0.71875 C 0 1.113281 0.324219 1.4375 0.71875 1.4375 Z M 0.71875 0.3125 C 0.941406 0.3125 1.125 0.496094 1.125 0.71875 C 1.125 0.941406 0.941406 1.125 0.71875 1.125 C 0.496094 1.125 0.3125 0.941406 0.3125 0.71875 C 0.3125 0.496094 0.496094 0.3125 0.71875 0.3125 Z M 0.71875 0.3125 "/>
<path style=" stroke:none;fill-rule:nonzero;fill:rgb(0%,0%,0%);fill-opacity:1;" d="M 7.28125 6.5625 C 7.140625 6.5625 7.007812 6.605469 6.894531 6.675781 L 6.585938 6.363281 C 6.523438 6.304688 6.425781 6.304688 6.363281 6.363281 C 6.304688 6.425781 6.304688 6.523438 6.363281 6.585938 L 6.675781 6.894531 C 6.605469 7.007812 6.5625 7.140625 6.5625 7.28125 C 6.5625 7.675781 6.886719 8 7.28125 8 C 7.675781 8 8 7.675781 8 7.28125 C 8 6.886719 7.675781 6.5625 7.28125 6.5625 Z M 7.28125 7.6875 C 7.058594 7.6875 6.875 7.503906 6.875 7.28125 C 6.875 7.058594 7.058594 6.875 7.28125 6.875 C 7.503906 6.875 7.6875 7.058594 7.6875 7.28125 C 7.6875 7.503906 7.503906 7.6875 7.28125 7.6875 Z M 7.28125 7.6875 "/>
<path style=" stroke:none;fill-rule:nonzero;fill:rgb(0%,0%,0%);fill-opacity:1;" d="M 6.472656 1.683594 C 6.515625 1.683594 6.554688 1.667969 6.585938 1.636719 L 6.894531 1.324219 C 7.007812 1.394531 7.140625 1.4375 7.28125 1.4375 C 7.675781 1.4375 8 1.113281 8 0.71875 C 8 0.324219 7.675781 0 7.28125 0 C 6.886719 0 6.5625 0.324219 6.5625 0.71875 C 6.5625 0.859375 6.605469 0.992188 6.675781 1.105469 L 6.363281 1.414062 C 6.304688 1.476562 6.304688 1.574219 6.363281 1.636719 C 6.394531 1.667969 6.433594 1.683594 6.472656 1.683594 Z M 7.28125 0.3125 C 7.503906 0.3125 7.6875 0.496094 7.6875 0.71875 C 7.6875 0.941406 7.503906 1.125 7.28125 1.125 C 7.058594 1.125 6.875 0.941406 6.875 0.71875 C 6.875 0.496094 7.058594 0.3125 7.28125 0.3125 Z M 7.28125 0.3125 "/>
<path style=" stroke:none;fill-rule:nonzero;fill:rgb(0%,0%,0%);fill-opacity:1;" d="M 1.414062 6.363281 L 1.105469 6.675781 C 0.992188 6.605469 0.859375 6.5625 0.71875 6.5625 C 0.324219 6.5625 0 6.886719 0 7.28125 C 0 7.675781 0.324219 8 0.71875 8 C 1.113281 8 1.4375 7.675781 1.4375 7.28125 C 1.4375 7.140625 1.394531 7.007812 1.324219 6.894531 L 1.636719 6.585938 C 1.695312 6.523438 1.695312 6.425781 1.636719 6.363281 C 1.574219 6.304688 1.476562 6.304688 1.414062 6.363281 Z M 0.71875 7.6875 C 0.496094 7.6875 0.3125 7.503906 0.3125 7.28125 C 0.3125 7.058594 0.496094 6.875 0.71875 6.875 C 0.941406 6.875 1.125 7.058594 1.125 7.28125 C 1.125 7.503906 0.941406 7.6875 0.71875 7.6875 Z M 0.71875 7.6875 "/>
<path style=" stroke:none;fill-rule:nonzero;fill:rgb(0%,0%,0%);fill-opacity:1;" d="M 4.753906 2.523438 C 4.679688 2.484375 4.585938 2.515625 4.542969 2.59375 C 4.503906 2.667969 4.535156 2.761719 4.613281 2.804688 C 5.066406 3.035156 5.347656 3.492188 5.347656 4 C 5.347656 4.304688 5.242188 4.589844 5.070312 4.816406 C 4.972656 4.589844 4.777344 4.417969 4.535156 4.355469 C 4.605469 4.253906 4.644531 4.128906 4.644531 3.996094 L 4.644531 3.914062 C 4.644531 3.558594 4.355469 3.269531 4.003906 3.269531 C 3.648438 3.269531 3.359375 3.558594 3.359375 3.914062 L 3.359375 3.996094 C 3.359375 4.128906 3.398438 4.253906 3.46875 4.355469 C 3.226562 4.417969 3.03125 4.589844 2.933594 4.816406 C 2.761719 4.589844 2.660156 4.304688 2.660156 4 C 2.660156 3.496094 2.9375 3.035156 3.386719 2.804688 C 3.464844 2.765625 3.496094 2.671875 3.457031 2.59375 C 3.414062 2.515625 3.320312 2.488281 3.246094 2.527344 C 2.691406 2.8125 2.347656 3.375 2.347656 4 C 2.347656 4.914062 3.089844 5.65625 4.003906 5.65625 C 4.914062 5.65625 5.660156 4.914062 5.660156 4 C 5.660156 3.375 5.3125 2.808594 4.753906 2.523438 Z M 3.671875 3.914062 C 3.671875 3.730469 3.820312 3.582031 4.003906 3.582031 C 4.183594 3.582031 4.332031 3.730469 4.332031 3.914062 L 4.332031 3.996094 C 4.332031 4.179688 4.183594 4.328125 4.003906 4.328125 C 3.820312 4.328125 3.671875 4.179688 3.671875 3.996094 Z M 3.1875 5.066406 C 3.21875 4.828125 3.421875 4.640625 3.671875 4.640625 L 4.332031 4.640625 C 4.582031 4.640625 4.785156 4.828125 4.816406 5.066406 C 4.589844 5.242188 4.308594 5.34375 4.003906 5.34375 C 3.695312 5.34375 3.414062 5.242188 3.1875 5.066406 Z M 3.1875 5.066406 "/>
<path style=" stroke:none;fill-rule:nonzero;fill:rgb(0%,0%,0%);fill-opacity:1;" d="M 4.003906 2.65625 C 4.042969 2.65625 4.082031 2.640625 4.113281 2.609375 C 4.140625 2.582031 4.160156 2.542969 4.160156 2.5 C 4.160156 2.457031 4.140625 2.417969 4.113281 2.390625 C 4.082031 2.359375 4.042969 2.34375 4.003906 2.34375 C 3.960938 2.34375 3.921875 2.359375 3.890625 2.390625 C 3.863281 2.417969 3.847656 2.457031 3.847656 2.5 C 3.847656 2.542969 3.863281 2.582031 3.890625 2.609375 C 3.921875 2.640625 3.960938 2.65625 4.003906 2.65625 Z M 4.003906 2.65625 "/>
</g>
</svg>
