<?xml version="1.0" encoding="UTF-8"?>
<svg xmlns="http://www.w3.org/2000/svg" xmlns:xlink="http://www.w3.org/1999/xlink" width="8pt" height="8pt" viewBox="0 0 8 8" version="1.1">
<g id="surface1">
<path style=" stroke:none;fill-rule:nonzero;fill:rgb(88.627451%,50.196078%,52.54902%);fill-opacity:1;" d="M 1.019531 7.414062 L 1.019531 1.203125 C 1.019531 0.921875 1.195312 0.699219 1.460938 0.601562 L 1.5625 0.5625 C 3.148438 -0.0351562 4.898438 -0.03125 6.480469 0.574219 L 6.546875 0.597656 C 6.808594 0.699219 6.980469 0.917969 6.980469 1.195312 L 6.96875 7.414062 C 6.96875 7.671875 6.761719 7.882812 6.5 7.882812 L 1.488281 7.882812 C 1.230469 7.882812 1.019531 7.671875 1.019531 7.414062 Z M 1.019531 7.414062 "/>
<path style=" stroke:none;fill-rule:nonzero;fill:rgb(86.666667%,38.823529%,43.137255%);fill-opacity:1;" d="M 6.546875 0.597656 L 6.492188 0.578125 C 6.507812 0.636719 6.515625 0.699219 6.515625 0.765625 L 6.507812 6.953125 C 6.507812 7.210938 6.296875 7.421875 6.039062 7.421875 L 1.0.27344 7.421875 C 1.0.23438 7.421875 1.0.23438 7.421875 1.019531 7.421875 C 1.0.23438 7.675781 1.234375 7.882812 1.488281 7.882812 L 6.5 7.882812 C 6.761719 7.882812 6.96875 7.671875 6.96875 7.414062 L 6.980469 1.195312 C 6.980469 0.917969 6.808594 0.699219 6.546875 0.597656 Z M 6.546875 0.597656 "/>
<path style=" stroke:none;fill-rule:nonzero;fill:rgb(21.176471%,36.862745%,49.019608%);fill-opacity:1;" d="M 6.546875 0.597656 L 6.480469 0.574219 C 4.898438 -0.03125 3.148438 -0.0351562 1.5625 0.5625 L 1.460938 0.601562 C 1.195312 0.699219 1.019531 0.921875 1.019531 1.203125 L 1.019531 2.375 L 6.976562 2.375 L 6.980469 1.195312 C 6.980469 0.917969 6.808594 0.699219 6.546875 0.597656 Z M 6.546875 0.597656 "/>
<path style=" stroke:none;fill-rule:nonzero;fill:rgb(16.862745%,30.196078%,40%);fill-opacity:1;" d="M 6.546875 0.597656 L 6.492188 0.578125 C 6.507812 0.636719 6.515625 0.699219 6.515625 0.765625 L 6.515625 2.375 L 6.976562 2.375 L 6.980469 1.195312 C 6.980469 0.917969 6.808594 0.699219 6.546875 0.597656 Z M 6.546875 0.597656 "/>
<path style=" stroke:none;fill-rule:nonzero;fill:rgb(69.411765%,89.411765%,97.647059%);fill-opacity:1;" d="M 6.132812 1.972656 L 1.855469 1.972656 C 1.777344 1.972656 1.714844 1.910156 1.714844 1.832031 L 1.714844 1.078125 C 1.714844 1 1.777344 0.9375 1.855469 0.9375 L 6.132812 0.9375 C 6.210938 0.9375 6.273438 1 6.273438 1.078125 L 6.273438 1.832031 C 6.273438 1.910156 6.210938 1.972656 6.132812 1.972656 Z M 6.132812 1.972656 "/>
<path style=" stroke:none;fill-rule:nonzero;fill:rgb(56.470588%,84.705882%,97.647059%);fill-opacity:1;" d="M 6.132812 0.9375 L 5.878906 0.9375 L 5.878906 1.464844 C 5.878906 1.542969 5.8125 1.605469 5.738281 1.605469 L 1.714844 1.605469 L 1.714844 1.832031 C 1.714844 1.910156 1.777344 1.972656 1.855469 1.972656 L 6.132812 1.972656 C 6.210938 1.972656 6.273438 1.910156 6.273438 1.832031 L 6.273438 1.078125 C 6.273438 1 6.210938 0.9375 6.132812 0.9375 Z M 6.132812 0.9375 "/>
<path style=" stroke:none;fill-rule:nonzero;fill:rgb(90.588235%,92.54902%,96.470588%);fill-opacity:1;" d="M 6.117188 7.144531 L 1.871094 7.144531 C 1.785156 7.144531 1.714844 7.074219 1.714844 6.988281 L 1.714844 3.003906 C 1.714844 2.917969 1.785156 2.847656 1.871094 2.847656 L 6.117188 2.847656 C 6.207031 2.847656 6.273438 2.917969 6.273438 3.003906 L 6.273438 6.988281 C 6.273438 7.074219 6.207031 7.144531 6.117188 7.144531 Z M 6.117188 7.144531 "/>
<path style=" stroke:none;fill-rule:nonzero;fill:rgb(84.705882%,88.627451%,94.509804%);fill-opacity:1;" d="M 6.117188 2.847656 L 6.050781 2.847656 L 6.050781 6.761719 C 6.050781 6.847656 5.980469 6.917969 5.894531 6.917969 L 1.714844 6.917969 L 1.714844 6.988281 C 1.714844 7.074219 1.785156 7.144531 1.871094 7.144531 L 6.117188 7.144531 C 6.207031 7.144531 6.273438 7.074219 6.273438 6.988281 L 6.273438 3.003906 C 6.273438 2.917969 6.207031 2.847656 6.117188 2.847656 Z M 6.117188 2.847656 "/>
<path style=" stroke:none;fill-rule:nonzero;fill:rgb(0%,0%,0%);fill-opacity:1;" d="M 6.972656 6.34375 C 6.90625 6.34375 6.855469 6.398438 6.855469 6.460938 L 6.851562 7.414062 C 6.851562 7.609375 6.695312 7.765625 6.5 7.765625 L 1.488281 7.765625 C 1.296875 7.765625 1.136719 7.609375 1.136719 7.414062 L 1.136719 2.492188 L 1.957031 2.492188 C 2.023438 2.492188 2.074219 2.441406 2.074219 2.375 C 2.074219 2.308594 2.023438 2.257812 1.957031 2.257812 L 1.136719 2.257812 L 1.136719 1.203125 C 1.136719 0.96875 1.285156 0.792969 1.5 0.710938 L 1.605469 0.675781 C 1.824219 0.589844 2.050781 0.519531 2.277344 0.460938 C 2.339844 0.441406 2.375 0.378906 2.359375 0.316406 C 2.34375 0.253906 2.277344 0.214844 2.214844 0.234375 C 1.980469 0.292969 1.746094 0.367188 1.523438 0.453125 L 1.417969 0.492188 C 1.109375 0.605469 0.902344 0.871094 0.902344 1.203125 L 0.902344 7.414062 C 0.902344 7.738281 1.167969 8 1.488281 8 L 6.5 8 C 6.824219 8 7.085938 7.738281 7.085938 7.414062 L 7.089844 6.460938 C 7.089844 6.398438 7.035156 6.34375 6.972656 6.34375 Z M 6.972656 6.34375 "/>
<path style=" stroke:none;fill-rule:nonzero;fill:rgb(0%,0%,0%);fill-opacity:1;" d="M 6.589844 0.488281 L 6.523438 0.464844 C 5.324219 0.0078125 4.023438 -0.117188 2.761719 0.113281 C 2.699219 0.121094 2.65625 0.183594 2.667969 0.246094 C 2.679688 0.3125 2.742188 0.351562 2.804688 0.34375 C 4.023438 0.121094 5.28125 0.238281 6.441406 0.683594 L 6.503906 0.707031 C 6.71875 0.789062 6.863281 0.964844 6.863281 1.195312 L 6.859375 2.257812 L 2.53125 2.257812 C 2.46875 2.257812 2.414062 2.308594 2.414062 2.375 C 2.414062 2.441406 2.46875 2.492188 2.53125 2.492188 L 6.859375 2.492188 L 6.855469 5.902344 C 6.855469 5.964844 6.90625 6.019531 6.972656 6.019531 C 7.035156 6.019531 7.089844 5.964844 7.089844 5.902344 L 7.097656 1.195312 C 7.097656 0.871094 6.894531 0.605469 6.589844 0.488281 Z M 6.589844 0.488281 "/>
<path style=" stroke:none;fill-rule:nonzero;fill:rgb(0%,0%,0%);fill-opacity:1;" d="M 1.597656 1.078125 L 1.597656 1.832031 C 1.597656 1.972656 1.714844 2.089844 1.855469 2.089844 L 6.132812 2.089844 C 6.277344 2.089844 6.390625 1.972656 6.390625 1.832031 L 6.390625 1.078125 C 6.390625 0.933594 6.277344 0.820312 6.132812 0.820312 L 1.855469 0.820312 C 1.714844 0.820312 1.597656 0.933594 1.597656 1.078125 Z M 6.15625 1.078125 L 6.15625 1.832031 C 6.15625 1.84375 6.148438 1.855469 6.132812 1.855469 L 1.855469 1.855469 C 1.84375 1.855469 1.832031 1.84375 1.832031 1.832031 L 1.832031 1.078125 C 1.832031 1.0625 1.84375 1.054688 1.855469 1.054688 L 6.132812 1.054688 C 6.148438 1.054688 6.15625 1.0625 6.15625 1.078125 Z M 6.15625 1.078125 "/>
<path style=" stroke:none;fill-rule:nonzero;fill:rgb(0%,0%,0%);fill-opacity:1;" d="M 1.597656 3.003906 L 1.597656 6.988281 C 1.597656 7.140625 1.71875 7.261719 1.871094 7.261719 L 6.117188 7.261719 C 6.269531 7.261719 6.390625 7.140625 6.390625 6.988281 L 6.390625 3.003906 C 6.390625 2.851562 6.269531 2.730469 6.117188 2.730469 L 1.871094 2.730469 C 1.71875 2.730469 1.597656 2.851562 1.597656 3.003906 Z M 1.871094 2.964844 L 3.117188 2.964844 L 3.117188 4.164062 L 1.832031 4.164062 L 1.832031 3.003906 C 1.832031 2.980469 1.847656 2.964844 1.871094 2.964844 Z M 6.15625 5.59375 L 4.871094 5.59375 L 4.871094 4.398438 L 6.15625 4.398438 Z M 4.636719 5.59375 L 3.351562 5.59375 L 3.351562 4.398438 L 4.636719 4.398438 Z M 4.636719 5.828125 L 4.636719 7.027344 L 3.351562 7.027344 L 3.351562 5.828125 Z M 1.832031 4.398438 L 3.117188 4.398438 L 3.117188 5.59375 L 1.832031 5.59375 Z M 3.351562 4.164062 L 3.351562 2.964844 L 4.636719 2.964844 L 4.636719 4.164062 Z M 1.832031 6.988281 L 1.832031 5.828125 L 3.117188 5.828125 L 3.117188 7.027344 L 1.871094 7.027344 C 1.847656 7.027344 1.832031 7.011719 1.832031 6.988281 Z M 6.117188 7.027344 L 4.871094 7.027344 L 4.871094 5.828125 L 6.15625 5.828125 L 6.15625 6.988281 C 6.15625 7.011719 6.140625 7.027344 6.117188 7.027344 Z M 6.15625 3.003906 L 6.15625 4.164062 L 4.871094 4.164062 L 4.871094 2.964844 L 6.117188 2.964844 C 6.140625 2.964844 6.15625 2.980469 6.15625 3.003906 Z M 6.15625 3.003906 "/>
<path style=" stroke:none;fill-rule:nonzero;fill:rgb(0%,0%,0%);fill-opacity:1;" d="M 3.789062 5.144531 L 3.894531 5.144531 L 3.894531 5.25 C 3.894531 5.316406 3.949219 5.367188 4.011719 5.367188 C 4.078125 5.367188 4.128906 5.316406 4.128906 5.25 L 4.128906 5.144531 L 4.230469 5.144531 C 4.296875 5.144531 4.347656 5.09375 4.347656 5.027344 C 4.347656 4.960938 4.296875 4.910156 4.230469 4.910156 L 4.128906 4.910156 L 4.128906 4.808594 C 4.128906 4.746094 4.078125 4.691406 4.011719 4.691406 C 3.949219 4.691406 3.894531 4.746094 3.894531 4.808594 L 3.894531 4.910156 L 3.789062 4.910156 C 3.726562 4.910156 3.671875 4.960938 3.671875 5.027344 C 3.671875 5.09375 3.726562 5.144531 3.789062 5.144531 Z M 3.789062 5.144531 "/>
<path style=" stroke:none;fill-rule:nonzero;fill:rgb(0%,0%,0%);fill-opacity:1;" d="M 5.324219 3.46875 L 5.398438 3.542969 L 5.324219 3.617188 C 5.277344 3.664062 5.277344 3.738281 5.324219 3.785156 C 5.347656 3.808594 5.378906 3.820312 5.40625 3.820312 C 5.4375 3.820312 5.46875 3.808594 5.488281 3.785156 L 5.566406 3.710938 L 5.636719 3.78125 C 5.660156 3.804688 5.6875 3.816406 5.71875 3.816406 C 5.75 3.816406 5.78125 3.804688 5.800781 3.78125 C 5.847656 3.734375 5.847656 3.660156 5.800781 3.613281 L 5.730469 3.542969 L 5.800781 3.472656 C 5.847656 3.425781 5.847656 3.351562 5.800781 3.304688 C 5.757812 3.261719 5.683594 3.261719 5.636719 3.304688 L 5.566406 3.378906 L 5.488281 3.304688 C 5.445312 3.257812 5.371094 3.257812 5.324219 3.304688 C 5.277344 3.347656 5.277344 3.421875 5.324219 3.46875 Z M 5.324219 3.46875 "/>
<path style=" stroke:none;fill-rule:nonzero;fill:rgb(0%,0%,0%);fill-opacity:1;" d="M 2.644531 4.910156 L 2.203125 4.910156 C 2.136719 4.910156 2.085938 4.960938 2.085938 5.027344 C 2.085938 5.089844 2.136719 5.144531 2.203125 5.144531 L 2.644531 5.144531 C 2.707031 5.144531 2.761719 5.089844 2.761719 5.027344 C 2.761719 4.960938 2.707031 4.910156 2.644531 4.910156 Z M 2.644531 4.910156 "/>
<path style=" stroke:none;fill-rule:nonzero;fill:rgb(0%,0%,0%);fill-opacity:1;" d="M 5.34375 1.589844 L 5.785156 1.589844 C 5.847656 1.589844 5.902344 1.539062 5.902344 1.472656 C 5.902344 1.410156 5.847656 1.355469 5.785156 1.355469 L 5.34375 1.355469 C 5.277344 1.355469 5.226562 1.410156 5.226562 1.472656 C 5.226562 1.539062 5.277344 1.589844 5.34375 1.589844 Z M 5.34375 1.589844 "/>
<path style=" stroke:none;fill-rule:nonzero;fill:rgb(0%,0%,0%);fill-opacity:1;" d="M 4.390625 1.589844 L 4.832031 1.589844 C 4.898438 1.589844 4.949219 1.539062 4.949219 1.472656 C 4.949219 1.410156 4.898438 1.355469 4.832031 1.355469 L 4.390625 1.355469 C 4.328125 1.355469 4.273438 1.410156 4.273438 1.472656 C 4.273438 1.539062 4.328125 1.589844 4.390625 1.589844 Z M 4.390625 1.589844 "/>
<path style=" stroke:none;fill-rule:nonzero;fill:rgb(0%,0%,0%);fill-opacity:1;" d="M 5.785156 6.152344 L 5.34375 6.152344 C 5.277344 6.152344 5.226562 6.203125 5.226562 6.269531 C 5.226562 6.335938 5.277344 6.386719 5.34375 6.386719 L 5.785156 6.386719 C 5.847656 6.386719 5.902344 6.335938 5.902344 6.269531 C 5.902344 6.203125 5.847656 6.152344 5.785156 6.152344 Z M 5.785156 6.152344 "/>
<path style=" stroke:none;fill-rule:nonzero;fill:rgb(0%,0%,0%);fill-opacity:1;" d="M 5.785156 6.59375 L 5.34375 6.59375 C 5.277344 6.59375 5.226562 6.644531 5.226562 6.710938 C 5.226562 6.773438 5.277344 6.828125 5.34375 6.828125 L 5.785156 6.828125 C 5.847656 6.828125 5.902344 6.773438 5.902344 6.710938 C 5.902344 6.644531 5.847656 6.59375 5.785156 6.59375 Z M 5.785156 6.59375 "/>
<path style=" stroke:none;fill-rule:nonzero;fill:rgb(0%,0%,0%);fill-opacity:1;" d="M 3.75 6.726562 C 3.773438 6.75 3.804688 6.761719 3.832031 6.761719 C 3.863281 6.761719 3.894531 6.746094 3.917969 6.722656 L 4.242188 6.386719 C 4.285156 6.339844 4.285156 6.265625 4.238281 6.21875 C 4.191406 6.175781 4.117188 6.175781 4.070312 6.222656 L 3.746094 6.5625 C 3.703125 6.609375 3.703125 6.683594 3.75 6.726562 Z M 3.75 6.726562 "/>
<path style=" stroke:none;fill-rule:nonzero;fill:rgb(0%,0%,0%);fill-opacity:1;" d="M 4.269531 3.304688 L 4.058594 3.304688 C 4.007812 3.304688 3.960938 3.324219 3.925781 3.359375 L 3.667969 3.628906 C 3.625 3.675781 3.625 3.75 3.671875 3.792969 C 3.695312 3.816406 3.722656 3.828125 3.753906 3.828125 C 3.785156 3.828125 3.8125 3.816406 3.835938 3.789062 L 4.078125 3.539062 L 4.269531 3.539062 C 4.335938 3.539062 4.386719 3.484375 4.386719 3.421875 C 4.386719 3.355469 4.335938 3.304688 4.269531 3.304688 Z M 4.269531 3.304688 "/>
<path style=" stroke:none;fill-rule:nonzero;fill:rgb(0%,0%,0%);fill-opacity:1;" d="M 2.421875 6.382812 C 2.355469 6.382812 2.304688 6.4375 2.304688 6.503906 C 2.304688 6.570312 2.355469 6.621094 2.421875 6.621094 C 2.488281 6.621094 2.539062 6.570312 2.539062 6.503906 C 2.539062 6.4375 2.488281 6.382812 2.421875 6.382812 Z M 2.421875 6.382812 "/>
<path style=" stroke:none;fill-rule:nonzero;fill:rgb(0%,0%,0%);fill-opacity:1;" d="M 5.320312 5.285156 C 5.34375 5.304688 5.371094 5.316406 5.402344 5.316406 C 5.433594 5.316406 5.464844 5.304688 5.484375 5.28125 L 5.808594 4.941406 C 5.855469 4.894531 5.851562 4.820312 5.804688 4.777344 C 5.757812 4.730469 5.683594 4.734375 5.640625 4.78125 L 5.316406 5.117188 C 5.273438 5.164062 5.273438 5.238281 5.320312 5.285156 Z M 5.320312 5.285156 "/>
<path style=" stroke:none;fill-rule:nonzero;fill:rgb(0%,0%,0%);fill-opacity:1;" d="M 5.316406 4.90625 C 5.382812 4.90625 5.4375 4.851562 5.4375 4.785156 C 5.4375 4.722656 5.382812 4.667969 5.316406 4.667969 C 5.253906 4.667969 5.199219 4.722656 5.199219 4.785156 C 5.199219 4.851562 5.253906 4.90625 5.316406 4.90625 Z M 5.316406 4.90625 "/>
<path style=" stroke:none;fill-rule:nonzero;fill:rgb(0%,0%,0%);fill-opacity:1;" d="M 5.691406 5.265625 C 5.691406 5.332031 5.742188 5.386719 5.808594 5.386719 C 5.875 5.386719 5.925781 5.332031 5.925781 5.265625 C 5.925781 5.203125 5.875 5.148438 5.808594 5.148438 C 5.742188 5.148438 5.691406 5.203125 5.691406 5.265625 Z M 5.691406 5.265625 "/>
<path style=" stroke:none;fill-rule:nonzero;fill:rgb(0%,0%,0%);fill-opacity:1;" d="M 2.121094 3.933594 C 2.183594 3.945312 2.246094 3.90625 2.257812 3.839844 L 2.273438 3.761719 L 2.296875 3.847656 C 2.296875 3.851562 2.300781 3.851562 2.300781 3.851562 C 2.316406 3.90625 2.367188 3.941406 2.421875 3.941406 C 2.476562 3.941406 2.527344 3.90625 2.542969 3.851562 C 2.546875 3.851562 2.546875 3.847656 2.546875 3.847656 L 2.570312 3.761719 L 2.585938 3.84375 C 2.597656 3.90625 2.660156 3.949219 2.722656 3.933594 C 2.785156 3.921875 2.828125 3.863281 2.816406 3.796875 L 2.71875 3.28125 C 2.707031 3.222656 2.65625 3.179688 2.597656 3.175781 C 2.539062 3.175781 2.484375 3.210938 2.46875 3.265625 C 2.46875 3.265625 2.46875 3.269531 2.46875 3.269531 L 2.421875 3.433594 L 2.371094 3.269531 C 2.371094 3.269531 2.371094 3.265625 2.371094 3.265625 C 2.351562 3.210938 2.296875 3.171875 2.238281 3.175781 C 2.179688 3.179688 2.132812 3.222656 2.121094 3.28125 L 2.027344 3.800781 C 2.015625 3.863281 2.058594 3.925781 2.121094 3.933594 Z M 2.121094 3.933594 "/>
</g>
</svg>
