<?xml version="1.0" encoding="UTF-8"?>
<svg xmlns="http://www.w3.org/2000/svg" xmlns:xlink="http://www.w3.org/1999/xlink" width="8pt" height="8pt" viewBox="0 0 8 8" version="1.1">
<g id="surface1">
<path style=" stroke:none;fill-rule:nonzero;fill:rgb(90.588235%,94.901961%,98.039216%);fill-opacity:1;" d="M 1.160156 3.144531 C 0.605469 3.144531 0.15625 3.597656 0.15625 4.152344 C 0.15625 4.707031 0.605469 5.15625 1.160156 5.15625 L 3.082031 5.15625 L 3.082031 3.46875 L 4.917969 3.46875 L 4.917969 5.15625 L 6.367188 5.15625 C 7.183594 5.15625 7.84375 4.496094 7.84375 3.679688 C 7.84375 2.863281 7.183594 2.203125 6.367188 2.203125 C 6.277344 2.203125 6.1875 2.210938 6.105469 2.226562 C 6.019531 1.804688 5.703125 1.472656 5.292969 1.363281 C 5.253906 0.6875 4.695312 0.15625 4.011719 0.15625 C 3.449219 0.15625 2.96875 0.519531 2.796875 1.0.23438 L 2.792969 1.0.23438 C 1.875 1.0.23438 1.136719 1.765625 1.136719 2.679688 C 1.136719 2.84375 1.160156 3 1.203125 3.148438 C 1.1875 3.148438 1.175781 3.144531 1.160156 3.144531 Z M 1.160156 3.144531 "/>
<path style=" stroke:none;fill-rule:nonzero;fill:rgb(100%,36.470588%,36.470588%);fill-opacity:1;" d="M 3.082031 3.46875 L 3.082031 5.6875 L 2.3125 5.6875 L 4 7.84375 L 5.6875 5.6875 L 4.917969 5.6875 L 4.917969 3.46875 Z M 3.082031 3.46875 "/>
<path style=" stroke:none;fill-rule:nonzero;fill:rgb(0%,0%,0%);fill-opacity:1;" d="M 6.367188 2.046875 C 6.316406 2.046875 6.269531 2.046875 6.21875 2.050781 C 6.097656 1.679688 5.804688 1.378906 5.4375 1.246094 C 5.34375 0.539062 4.734375 0 4.011719 0 C 3.433594 0 2.914062 0.347656 2.6875 0.871094 C 1.738281 0.925781 1.0.20469 1.714844 1.0.20469 2.679688 C 1.0.20469 2.789062 1.0.28281 2.894531 1.007812 3 C 0.4375 3.074219 0 3.5625 0 4.152344 C 0 4.792969 0.519531 5.3125 1.160156 5.3125 L 2.925781 5.3125 L 2.925781 5.53125 L 2.3125 5.53125 C 2.25 5.53125 2.195312 5.5625 2.171875 5.617188 C 2.144531 5.671875 2.152344 5.734375 2.1875 5.78125 L 3.878906 7.941406 C 3.90625 7.976562 3.953125 8 4 8 C 4.046875 8 4.09375 7.976562 4.125 7.941406 L 5.8125 5.78125 C 5.847656 5.734375 5.855469 5.671875 5.828125 5.617188 C 5.804688 5.5625 5.75 5.53125 5.6875 5.53125 L 5.074219 5.53125 L 5.074219 5.3125 L 6.367188 5.3125 C 7.265625 5.3125 8 4.578125 8 3.679688 C 8 2.777344 7.265625 2.046875 6.367188 2.046875 Z M 5.367188 5.84375 L 4 7.589844 L 2.632812 5.84375 L 3.082031 5.84375 C 3.167969 5.84375 3.238281 5.773438 3.238281 5.6875 L 3.238281 3.625 L 4.761719 3.625 L 4.761719 5.6875 C 4.761719 5.773438 4.832031 5.84375 4.917969 5.84375 Z M 6.367188 5 L 5.074219 5 L 5.074219 3.46875 C 5.074219 3.382812 5.003906 3.3125 4.917969 3.3125 L 3.082031 3.3125 C 2.996094 3.3125 2.925781 3.382812 2.925781 3.46875 L 2.925781 5 L 1.160156 5 C 0.691406 5 0.3125 4.621094 0.3125 4.152344 C 0.3125 3.683594 0.691406 3.300781 1.160156 3.300781 C 1.171875 3.300781 1.183594 3.300781 1.195312 3.304688 C 1.246094 3.304688 1.292969 3.28125 1.324219 3.242188 C 1.355469 3.203125 1.367188 3.152344 1.351562 3.101562 C 1.3125 2.964844 1.292969 2.824219 1.292969 2.679688 C 1.292969 1.855469 1.964844 1.179688 2.792969 1.179688 L 2.796875 1.179688 C 2.863281 1.179688 2.921875 1.136719 2.945312 1.074219 C 3.101562 0.617188 3.53125 0.3125 4.011719 0.3125 C 4.609375 0.3125 5.101562 0.777344 5.136719 1.371094 C 5.140625 1.4375 5.1875 1.496094 5.253906 1.511719 C 5.605469 1.609375 5.878906 1.898438 5.949219 2.257812 C 5.96875 2.339844 6.046875 2.394531 6.132812 2.378906 C 6.207031 2.363281 6.289062 2.359375 6.367188 2.359375 C 7.09375 2.359375 7.6875 2.949219 7.6875 3.679688 C 7.6875 4.40625 7.09375 5 6.367188 5 Z M 6.367188 5 "/>
<path style=" stroke:none;fill-rule:nonzero;fill:rgb(0%,0%,0%);fill-opacity:1;" d="M 3.207031 1.371094 C 3.125 1.339844 3.039062 1.386719 3.007812 1.464844 L 3.007812 1.476562 C 2.980469 1.558594 3.023438 1.644531 3.105469 1.671875 C 3.121094 1.679688 3.136719 1.683594 3.15625 1.683594 C 3.21875 1.683594 3.28125 1.640625 3.300781 1.578125 L 3.304688 1.566406 C 3.332031 1.488281 3.289062 1.398438 3.207031 1.371094 Z M 3.207031 1.371094 "/>
<path style=" stroke:none;fill-rule:nonzero;fill:rgb(0%,0%,0%);fill-opacity:1;" d="M 4.347656 0.5625 C 4.238281 0.519531 4.125 0.5 4.011719 0.5 C 3.65625 0.5 3.332031 0.699219 3.171875 1.015625 C 3.132812 1.09375 3.164062 1.1875 3.242188 1.226562 C 3.265625 1.238281 3.289062 1.242188 3.3125 1.242188 C 3.367188 1.242188 3.425781 1.210938 3.453125 1.15625 C 3.558594 0.945312 3.773438 0.8125 4.011719 0.8125 C 4.089844 0.8125 4.164062 0.828125 4.234375 0.851562 C 4.316406 0.882812 4.40625 0.84375 4.4375 0.761719 C 4.46875 0.683594 4.425781 0.59375 4.347656 0.5625 Z M 4.347656 0.5625 "/>
</g>
</svg>
